<svg xmlns="http://www.w3.org/2000/svg" viewBox="0 0 541.03 540.35"><defs><style>.cls-1{fill:#ffcf16;}.cls-1,.cls-2{fill-rule:evenodd;}</style></defs><g id="Layer_2" data-name="Layer 2"><g id="Layer_1-2" data-name="Layer 1"><path class="cls-1" d="M316.94,540.3c178.2-5.14,195.74-42.66,195.74-255.61,0-235-21.36-256.34-256.34-256.34S0,49.71,0,284.69C0,498.2,17.64,535.35,197.13,540.35a10.75,10.75,0,0,0,2.13-6.86c0-5.34-.21-60.16-.32-79-64.87,13.65-78.57-30.31-78.57-30.31-10.61-26.1-25.91-33.07-25.91-33.07-21.17-14,1.6-13.73,1.6-13.73,23.42,1.6,35.74,23.3,35.74,23.3,20.81,34.54,54.6,24.57,67.89,18.78,2.11-14.59,8.14-24.57,14.8-30.21-51.8-5.7-106.25-25.1-106.25-111.72,0-24.67,9.1-44.84,24-60.65-2.41-5.72-10.4-28.71,2.29-59.81,0,0,19.59-6.09,64.15,23.16a227.89,227.89,0,0,1,116.8,0C360,151,379.58,157.05,379.58,157.05c12.73,31.1,4.72,54.09,2.3,59.81,15,15.81,24,36,24,60.65,0,86.84-54.53,106-106.51,111.53,8.38,7,15.83,20.79,15.83,41.87,0,20.21-.13,55.95-.21,79.64,0,11.72-.07,20.48-.07,22.94a12,12,0,0,0,2,6.81Z"/><path class="cls-2" d="M345.29,512C523.49,506.81,541,469.3,541,256.34,541,21.36,519.67,0,284.69,0S28.35,21.36,28.35,256.34C28.35,469.85,46,507,225.47,512a10.74,10.74,0,0,0,2.14-6.86c0-5.34-.21-60.15-.32-79-64.88,13.65-78.57-30.32-78.57-30.32-10.62-26.1-25.91-33.06-25.91-33.06-21.17-14,1.6-13.74,1.6-13.74,23.41,1.6,35.74,23.31,35.74,23.31,20.81,34.54,54.6,24.56,67.89,18.77,2.11-14.59,8.14-24.56,14.8-30.2-51.8-5.71-106.25-25.1-106.25-111.73,0-24.67,9.1-44.83,24-60.64-2.42-5.73-10.41-28.71,2.28-59.82,0,0,19.59-6.08,64.15,23.16a228.22,228.22,0,0,1,116.81,0c44.54-29.24,64.08-23.16,64.08-23.16,12.74,31.11,4.73,54.09,2.31,59.82,14.95,15.81,24,36,24,60.64,0,86.84-54.54,106-106.51,111.53,8.37,7,15.83,20.79,15.83,41.87,0,20.21-.13,55.95-.21,79.64-.05,11.73-.07,20.49-.07,22.94a12,12,0,0,0,2,6.82Z"/></g></g></svg>