<svg xmlns="http://www.w3.org/2000/svg" xmlns:xlink="http://www.w3.org/1999/xlink" viewBox="0 0 540.34 540.34"><defs><style>.cls-1{fill:#ffcf16;}.cls-2{fill:url(#linear-gradient);}.cls-3{fill:url(#linear-gradient-3);}</style><linearGradient id="linear-gradient" x1="-311.17" y1="1164.19" x2="-310.17" y2="1164.19" gradientTransform="matrix(-149.61, 494.3, 494.3, 149.61, -621652.05, -20383.14)" gradientUnits="userSpaceOnUse"><stop offset="0"/><stop offset="0.26"/><stop offset="0.66"/><stop offset="1"/></linearGradient><linearGradient id="linear-gradient-3" x1="-311.17" y1="1164.37" x2="-310.17" y2="1164.37" xlink:href="#linear-gradient"/></defs><g id="Layer_2" data-name="Layer 2"><g id="Layer_1-2" data-name="Layer 1"><path class="cls-1" d="M256,28.35c-69.53,0-78.24.29-105.55,1.54s-45.86,5.57-62.14,11.9A125.38,125.38,0,0,0,43,71.31a125.53,125.53,0,0,0-29.53,45.35C7.11,132.94,2.78,151.55,1.54,178.8S0,214.82,0,284.35s.29,78.24,1.54,105.54S7.11,435.75,13.44,452A125.45,125.45,0,0,0,43,497.38a125.54,125.54,0,0,0,45.34,29.53c16.28,6.32,34.89,10.65,62.14,11.89s36,1.54,105.55,1.54,78.24-.29,105.55-1.54,45.85-5.57,62.14-11.89A130.92,130.92,0,0,0,498.56,452c6.33-16.28,10.65-34.89,11.9-62.14s1.54-36,1.54-105.54-.3-78.25-1.54-105.55-5.57-45.86-11.9-62.14A125.53,125.53,0,0,0,469,71.31a125.47,125.47,0,0,0-45.34-29.52c-16.29-6.33-34.9-10.66-62.14-11.9S325.52,28.35,256,28.35Zm0,46.12c68.35,0,76.45.26,103.45,1.5C384.4,77.1,398,81.27,407,84.78a79.27,79.27,0,0,1,29.44,19.15,79.56,79.56,0,0,1,19.15,29.43c3.5,9,7.67,22.58,8.81,47.54,1.23,27,1.49,35.09,1.49,103.45s-.26,76.45-1.49,103.44c-1.14,25-5.31,38.52-8.81,47.54A84.78,84.78,0,0,1,407,483.91c-9,3.51-22.58,7.68-47.53,8.82-27,1.23-35.09,1.49-103.45,1.49s-76.46-.26-103.45-1.49c-25-1.14-38.51-5.31-47.53-8.82a79.27,79.27,0,0,1-29.44-19.15,79.36,79.36,0,0,1-19.15-29.43c-3.5-9-7.67-22.58-8.81-47.54-1.23-27-1.49-35.09-1.49-103.44s.26-76.46,1.49-103.45c1.14-25,5.31-38.51,8.81-47.54a79.44,79.44,0,0,1,19.15-29.43A79.27,79.27,0,0,1,105,84.78c9-3.51,22.57-7.68,47.53-8.81C179.55,74.73,187.65,74.47,256,74.47Z"/><path class="cls-1" d="M256,369.68a85.34,85.34,0,1,1,85.33-85.33A85.33,85.33,0,0,1,256,369.68Zm0-216.79A131.46,131.46,0,1,0,387.46,284.35,131.46,131.46,0,0,0,256,152.89Z"/><path class="cls-1" d="M423.37,147.69A30.72,30.72,0,1,1,392.65,117,30.72,30.72,0,0,1,423.37,147.69Z"/><path class="cls-2" d="M284.35,0C214.82,0,206.1.29,178.8,1.54s-45.86,5.57-62.14,11.9A125.45,125.45,0,0,0,71.31,43,125.47,125.47,0,0,0,41.79,88.31c-6.33,16.28-10.66,34.89-11.9,62.14s-1.54,36-1.54,105.55.29,78.24,1.54,105.55,5.57,45.85,11.9,62.14A125.47,125.47,0,0,0,71.31,469a125.45,125.45,0,0,0,45.35,29.53c16.28,6.33,34.89,10.65,62.14,11.9s36,1.54,105.55,1.54,78.24-.3,105.54-1.54,45.86-5.57,62.14-11.9a130.92,130.92,0,0,0,74.88-74.87c6.32-16.29,10.65-34.9,11.89-62.14s1.54-36,1.54-105.55-.29-78.24-1.54-105.55-5.57-45.86-11.89-62.14A125.63,125.63,0,0,0,497.38,43,125.45,125.45,0,0,0,452,13.44c-16.28-6.33-34.89-10.66-62.14-11.9S353.87,0,284.35,0Zm0,46.13c68.35,0,76.45.26,103.44,1.49,25,1.14,38.52,5.31,47.54,8.81a79.36,79.36,0,0,1,29.43,19.15A79.27,79.27,0,0,1,483.91,105c3.51,9,7.68,22.57,8.82,47.53,1.23,27,1.49,35.09,1.49,103.45s-.26,76.45-1.49,103.45c-1.14,24.95-5.31,38.51-8.82,47.53a84.78,84.78,0,0,1-48.58,48.59c-9,3.5-22.58,7.67-47.54,8.81-27,1.23-35.08,1.49-103.44,1.49s-76.46-.26-103.45-1.49c-25-1.14-38.51-5.31-47.54-8.81a79.56,79.56,0,0,1-29.43-19.15A79.27,79.27,0,0,1,84.78,407c-3.51-9-7.68-22.58-8.82-47.53-1.23-27-1.49-35.1-1.49-103.45s.26-76.45,1.49-103.45c1.14-25,5.31-38.51,8.82-47.53a79.27,79.27,0,0,1,19.15-29.44,79.56,79.56,0,0,1,29.43-19.15c9-3.5,22.58-7.67,47.54-8.81C207.89,46.39,216,46.13,284.35,46.13Z"/><path class="cls-2" d="M284.35,341.33A85.33,85.33,0,1,1,369.68,256,85.33,85.33,0,0,1,284.35,341.33Zm0-216.79A131.46,131.46,0,1,0,415.8,256,131.46,131.46,0,0,0,284.35,124.54Z"/><path class="cls-3" d="M451.72,119.35A30.72,30.72,0,1,1,421,88.63,30.73,30.73,0,0,1,451.72,119.35Z"/></g></g></svg>