<svg xmlns="http://www.w3.org/2000/svg" viewBox="0 0 540.35 540.35"><defs><style>.cls-1{fill:#ffcf16;}.cls-1,.cls-2{fill-rule:evenodd;}</style></defs><g id="Layer_2" data-name="Layer 2"><g id="Layer_1-2" data-name="Layer 1"><path class="cls-1" d="M448,28.35H64a64,64,0,0,0-64,64v384a64,64,0,0,0,64,64H448a64,64,0,0,0,64-64v-384A64,64,0,0,0,448,28.35ZM146.81,465H61.05V207h85.76Zm-42.88-293.2h-.55C74.59,171.77,56,152,56,127.2c0-25.28,19.17-44.57,48.51-44.57s47.38,19.29,47.94,44.57C152.45,152,133.83,171.77,103.93,171.77ZM456,465H370.26V327c0-34.66-12.43-58.32-43.44-58.32-23.69,0-37.8,15.95-44,31.35-2.28,5.51-2.83,13.22-2.83,20.93V465H194.26s1.14-233.76,0-258H280v36.53C291.41,226,311.79,201,357.28,201,413.69,201,456,237.81,456,317Z"/><path class="cls-2" d="M476.35,0h-384a64,64,0,0,0-64,64V448a64,64,0,0,0,64,64h384a64,64,0,0,0,64-64V64A64,64,0,0,0,476.35,0ZM175.16,436.63H89.4v-258h85.76Zm-42.88-293.2h-.56c-28.79,0-47.37-19.83-47.37-44.58,0-25.28,19.17-44.57,48.51-44.57s47.38,19.29,47.93,44.57C180.79,123.6,162.18,143.43,132.28,143.43Zm352.06,293.2H398.6v-138c0-34.66-12.42-58.33-43.43-58.33-23.69,0-37.81,16-44,31.35-2.27,5.51-2.82,13.22-2.82,20.93V436.63H222.61s1.14-233.77,0-258h85.74v36.52c11.41-17.57,31.78-42.59,77.27-42.59,56.42,0,98.72,36.86,98.72,116.1Z"/></g></g></svg>