<svg xmlns="http://www.w3.org/2000/svg" viewBox="0 0 534.37 534.37"><defs><style>.cls-1{fill:#ffcf16;}</style></defs><g id="Layer_2" data-name="Layer 2"><g id="Layer_1-2" data-name="Layer 1"><path class="cls-1" d="M151.81,433.16a50.61,50.61,0,1,0,50.6,50.61A50.38,50.38,0,0,0,151.81,433.16ZM0,28.35V79H50.6l91,191.91-34.16,62a51.47,51.47,0,0,0-6.2,24.42,50.59,50.59,0,0,0,50.61,50.6H455.42v-50.6H162.56a6.27,6.27,0,0,1-6.33-6.33,6.06,6.06,0,0,1,.76-3l22.65-41.24H368.13a50.77,50.77,0,0,0,44.28-26.06l90.45-164.21A24.47,24.47,0,0,0,506,104.25,25.29,25.29,0,0,0,480.72,79H106.64l-24-50.6ZM404.82,433.16a50.61,50.61,0,1,0,50.6,50.61A50.38,50.38,0,0,0,404.82,433.16Z"/><path d="M180.15,404.82a50.6,50.6,0,1,0,50.6,50.6A50.37,50.37,0,0,0,180.15,404.82ZM28.35,0V50.6H79l91,191.91-34.16,62a51.46,51.46,0,0,0-6.2,24.41,50.59,50.59,0,0,0,50.6,50.61H483.77V328.91H190.91a6.26,6.26,0,0,1-6.33-6.32,6,6,0,0,1,.76-3L208,278.31h188.5a50.76,50.76,0,0,0,44.27-26.06L531.2,88.05a24.41,24.41,0,0,0,3.17-12.15,25.3,25.3,0,0,0-25.3-25.3H135L111,0ZM433.16,404.82a50.6,50.6,0,1,0,50.61,50.6A50.38,50.38,0,0,0,433.16,404.82Z"/></g></g></svg>