<svg xmlns="http://www.w3.org/2000/svg" viewBox="0 0 709.7 539.52"><defs><style>.cls-1{fill:#ffcf16;}</style></defs><g id="Layer_2" data-name="Layer 2"><g id="Layer_1-2" data-name="Layer 1"><path class="cls-1" d="M674.54,138.65s-6.64-50.11-27.07-72.18c-25.92-28.92-55-29.09-68.26-30.73-95.36-7.39-238.38-7.39-238.38-7.39h-.32s-143,0-238.36,7.39c-13.31,1.64-42.32,1.81-68.26,30.73C13.48,88.54,6.82,138.65,6.82,138.65S0,197.46,0,256.27v55.12C0,370.24,6.82,429,6.82,429s6.64,50.1,27.07,72.12c25.94,28.93,60,28.05,75.12,31.08,54.5,5.58,231.67,7.3,231.67,7.3s143.17-.25,238.53-7.56c13.31-1.7,42.34-1.87,68.26-30.8,20.4-22,27.07-72.12,27.07-72.12s6.82-58.8,6.82-117.63V256.29C681.36,197.46,674.54,138.65,674.54,138.65ZM255.59,411.73V156.14l213,127.79Z"/><path d="M702.89,110.31s-6.65-50.12-27.08-72.18C649.89,9.2,620.86,9,607.55,7.39,512.2,0,369.17,0,369.17,0h-.32s-143,0-238.35,7.39C117.18,9,88.17,9.2,62.23,38.13c-20.4,22.06-27.07,72.18-27.07,72.18s-6.81,58.8-6.81,117.61V283c0,58.85,6.81,117.64,6.81,117.64s6.65,50.09,27.07,72.12c25.94,28.92,60,28.05,75.12,31.07,54.51,5.58,231.67,7.31,231.67,7.31s143.18-.26,238.53-7.56c13.31-1.71,42.34-1.88,68.26-30.8,20.41-22,27.08-72.12,27.08-72.12s6.81-58.81,6.81-117.64V227.94C709.7,169.11,702.89,110.31,702.89,110.31Zm-419,273.07V127.79l213,127.8Z"/></g></g></svg>