<svg xmlns="http://www.w3.org/2000/svg" viewBox="0 0 113.39 113.39"><g id="Layer_2" data-name="Layer 2"><g id="bootstrap"><path d="M68.94,48.23q2.59-1.92,2.6-6.25A8,8,0,0,0,70.67,38a6.28,6.28,0,0,0-2.31-2.4,9.74,9.74,0,0,0-3.31-1.21,22.47,22.47,0,0,0-3.9-.33H47v16H62.31A10.85,10.85,0,0,0,68.94,48.23Z"/><path d="M71.34,62.7a12.73,12.73,0,0,0-7.88-2.26H47V79.29H63.17a20.63,20.63,0,0,0,4.23-.43A10.3,10.3,0,0,0,71,77.41a7.16,7.16,0,0,0,2.45-2.74,9.41,9.41,0,0,0,.92-4.42C74.33,66.72,73.33,64.21,71.34,62.7Z"/><path d="M98.77,0H14.62A14.62,14.62,0,0,0,0,14.62V98.77a14.63,14.63,0,0,0,14.62,14.62H98.77a14.63,14.63,0,0,0,14.62-14.62V14.62A14.62,14.62,0,0,0,98.77,0ZM87.4,80.11A17.58,17.58,0,0,1,82,86.31a23.91,23.91,0,0,1-7.79,3.55,35.07,35.07,0,0,1-9,1.16H31.92V22.37H64.23a43.2,43.2,0,0,1,8.94.86,19.24,19.24,0,0,1,6.92,2.84,13.14,13.14,0,0,1,4.48,5.24,18.53,18.53,0,0,1,1.58,8.08A15,15,0,0,1,83.8,48a17.09,17.09,0,0,1-7,5.67,16.52,16.52,0,0,1,9.47,6.4,19,19,0,0,1,3.12,11A18.87,18.87,0,0,1,87.4,80.11Z"/></g></g></svg>