<svg xmlns="http://www.w3.org/2000/svg" viewBox="0 0 80.94 113.39"><defs><style>.cls-1{fill:#1d1d1b;}</style></defs><g id="Layer_2" data-name="Layer 2"><g id="css"><path class="cls-1" d="M0,22.32l7.59,82.21,32.88,8.86,32.88-8.86,7.59-82.21ZM64.65,49,40.44,59.32l-.06,0H63.79L61.11,90.13l-20.63,6h0L19.69,90,18.36,74.51H28.65l.67,8,11,2.79.09,0h0L51.86,82.1l.78-12.94-12.2,0h0L17.69,69l-.78-9.7,23.53-9.8L41.81,49H16L14.79,39H65.65Z"/><polygon class="cls-1" points="21.81 10.25 21.81 5.35 28.95 5.35 28.95 0 16.45 0 16.45 15.13 28.95 15.13 28.95 10.25 21.81 10.25"/><path class="cls-1" d="M41.79,5.35h5V0H34.29V5.35c1.67,1.68,2.54,2.48,5,4.89h-5v4.88H46.78V10.25Z"/><path class="cls-1" d="M59.5,5.35h5V0H52V5.35c1.68,1.68,2.55,2.48,5,4.89H52v4.88h12.5V10.25Z"/></g></g></svg>