<svg xmlns="http://www.w3.org/2000/svg" viewBox="0 0 113.39 113.38"><g id="Layer_2" data-name="Layer 2"><g id="git"><path d="M111.25,51.64,61.74,2.14a7.3,7.3,0,0,0-10.32,0L41.14,12.42l13,13a8.67,8.67,0,0,1,11,11L77.73,49.08A8.68,8.68,0,1,1,72.52,54L60.8,42.26V73.1a8.69,8.69,0,1,1-10,1.65,8.8,8.8,0,0,1,2.84-1.9V41.72a8.49,8.49,0,0,1-2.84-1.9,8.67,8.67,0,0,1-1.87-9.49L36.08,17.47,2.14,51.41a7.31,7.31,0,0,0,0,10.33l49.51,49.51a7.3,7.3,0,0,0,10.32,0L111.25,62a7.31,7.31,0,0,0,0-10.33"/></g></g></svg>