<svg xmlns="http://www.w3.org/2000/svg" viewBox="0 0 80.33 113.39"><g id="Layer_2" data-name="Layer 2"><g id="html"><path d="M0,22.28l7.31,82,32.81,9.11L73,104.27l7.32-82ZM65.08,41.74l-.46,5.1-.2,2.26H25.94l.92,10.3H63.51l-.25,2.7L60.9,88.57l-.15,1.7L40.16,96h0l-20.6-5.72L18.11,74.48H28.2l.72,8,11.2,3h0l11.22-3,1.16-13H17.66L15.19,41.74,15,39H65.32Z"/><path d="M7.47,0h5.11V5.05h4.68V0h5.11V15.29H17.26V10.17H12.58v5.12H7.47V0Z"/><path d="M29.09,5.07h-4.5V0H38.7V5.07H34.2V15.29H29.09V5.07Z"/><path d="M40.94,0h5.33l3.28,5.37L52.82,0h5.33V15.29H53.07V7.71l-3.52,5.44h-.09L45.94,7.71v7.58h-5Z"/><path d="M60.7,0h5.11V10.24H73v5H60.7Z"/></g></g></svg>