<svg xmlns="http://www.w3.org/2000/svg" viewBox="0 0 113.39 113.39"><g id="Layer_2" data-name="Layer 2"><g id="JS"><path d="M0,0V113.39H113.39V0ZM61.7,88.44c0,11-6.47,16-15.9,16-8.53,0-13.47-4.41-16-9.74h0l8.68-5.25c1.67,3,3.2,5.48,6.85,5.48,3.5,0,5.71-1.37,5.71-6.7V52.06H61.7ZM86.9,104.5c-9.89,0-16.29-4.72-19.41-10.89h0l8.68-5c2.28,3.73,5.25,6.47,10.5,6.47,4.42,0,7.23-2.21,7.23-5.25,0-3.66-2.89-5-7.76-7.08l-2.66-1.14c-7.69-3.28-12.79-7.39-12.79-16.06,0-8,6.09-14.08,15.6-14.08,6.77,0,11.65,2.36,15.15,8.52l-8.3,5.33c-1.83-3.27-3.8-4.57-6.85-4.57s-5.1,2-5.1,4.57c0,3.19,2,4.49,6.55,6.47l2.66,1.14c9.06,3.88,14.16,7.84,14.16,16.74C104.56,99.24,97,104.5,86.9,104.5Z"/></g></g></svg>