<svg xmlns="http://www.w3.org/2000/svg" viewBox="0 0 113.39 124.95"><defs><style>.cls-1{fill:#1d1d1b;}</style></defs><g id="Layer_2" data-name="Layer 2"><g id="css"><path class="cls-1" d="M51.58,1.33a10.49,10.49,0,0,1,10.23,0l46.72,26.39A9.62,9.62,0,0,1,113.39,36V89a9.74,9.74,0,0,1-5.22,8.46q-23.29,13.13-46.56,26.27a10.19,10.19,0,0,1-10.34-.29c-4.66-2.7-9.32-5.38-14-8.08a8.27,8.27,0,0,1-2.7-1.94c.6-.8,1.66-.9,2.52-1.25a32.09,32.09,0,0,0,5.51-2.57,1.29,1.29,0,0,1,1.44.09c4,2.28,7.92,4.63,11.91,6.89.86.49,1.72-.16,2.45-.57Q81.27,103,104.14,90.16a1.53,1.53,0,0,0,.83-1.49q0-26.19,0-52.39a1.62,1.62,0,0,0-1-1.63L57.6,8.5a1.61,1.61,0,0,0-1.82,0Q32.59,21.57,9.39,34.65a1.63,1.63,0,0,0-1,1.63q0,26.19,0,52.4a1.49,1.49,0,0,0,.84,1.47l12.39,7c2.33,1.26,5.19,2,7.75,1a5.86,5.86,0,0,0,3.8-5.52c0-17.36,0-34.73,0-52.09a1.29,1.29,0,0,1,1.42-1.33c2,0,4,0,6,0a1.38,1.38,0,0,1,1.29,1.59c0,17.47,0,35,0,52.42,0,4.65-1.91,9.72-6.22,12-5.3,2.75-11.86,2.17-17.11-.47C14,102.51,9.68,99.84,5.22,97.41A9.69,9.69,0,0,1,0,89V36a9.63,9.63,0,0,1,5-8.39Z"/><path class="cls-1" d="M65.12,38c6.76-.44,14-.26,20.1,3.07,4.72,2.56,7.33,7.92,7.42,13.16a1.43,1.43,0,0,1-1.55,1c-2,0-3.93,0-5.89,0-.83,0-1.32-.73-1.42-1.47a9,9,0,0,0-4.29-6.2c-3.63-1.81-7.83-1.72-11.78-1.68-2.88.15-6,.4-8.42,2.1a5.32,5.32,0,0,0-1.78,6c.63,1.5,2.36,2,3.78,2.43,8.16,2.13,16.8,1.92,24.8,4.73,3.32,1.14,6.56,3.37,7.69,6.84,1.48,4.65.83,10.2-2.47,13.93-2.69,3.08-6.59,4.75-10.49,5.65A50.3,50.3,0,0,1,65,88.24c-5-.57-10.1-1.87-13.93-5.24a14.63,14.63,0,0,1-4.7-11.52,1.33,1.33,0,0,1,1.45-1.17c2,0,4,0,5.93,0a1.37,1.37,0,0,1,1.41,1.37c.37,2.38,1.27,4.89,3.35,6.31,4,2.59,9.06,2.41,13.66,2.49,3.82-.17,8.1-.23,11.21-2.75a6.17,6.17,0,0,0,1.68-5.91c-.48-1.74-2.3-2.56-3.87-3.09-8.06-2.55-16.8-1.62-24.77-4.5-3.24-1.15-6.37-3.31-7.61-6.64-1.74-4.7-.94-10.53,2.71-14.13s8.71-5,13.6-5.46Z"/></g></g></svg>