<svg xmlns="http://www.w3.org/2000/svg" viewBox="0 0 113.39 84.26"><defs><style>.cls-1{fill:gray;}</style></defs><g id="Layer_2" data-name="Layer 2"><g id="Nuxt"><path class="cls-1" d="M46.78,0a6.2,6.2,0,0,0-5.4,3.72L1,74.68a7.15,7.15,0,0,0-.35,6.69,6.2,6.2,0,0,0,5.91,2.85H39a6.17,6.17,0,0,1-4.57-2.85h0a4,4,0,0,1-.23-.46,5.93,5.93,0,0,1-.4-3.33H7L46.87,7.48,60,30.47l3.79-6.71L52.34,3.67A7,7,0,0,0,46.78,0Z"/><path class="cls-1" d="M40.38,84.22H39A6,6,0,0,0,40.38,84.22Z"/><path class="cls-1" d="M87.49,84.22h0Z"/><path class="cls-1" d="M112.18,74.67h0L79,16.26a7,7,0,0,0-5.59-3.72,6.18,6.18,0,0,0-5.4,3.7l-4.29,7.52,3.82,6.71L73.46,20l32.81,57.57H93.8a5.56,5.56,0,0,1-.26,2.83,3.79,3.79,0,0,1-.26.58l-.11.22a7.15,7.15,0,0,1-5.68,3h19.18a7.16,7.16,0,0,0,6-3A6.21,6.21,0,0,0,112.18,74.67Z"/><path d="M93.17,81.21l.11-.22a3.68,3.68,0,0,0,.26-.57,5.61,5.61,0,0,0,.26-2.84,8.77,8.77,0,0,0-1.09-2.9L67.58,30.47l-3.84-6.71-3.81,6.71L34.81,74.68a9,9,0,0,0-1,2.9,5.93,5.93,0,0,0,.37,3.33,3.88,3.88,0,0,0,.22.46,6.22,6.22,0,0,0,5.91,2.85H87.12a7.18,7.18,0,0,0,6-3Zm-29.43-44,23,40.4H40.79Z"/></g></g></svg>