<svg xmlns="http://www.w3.org/2000/svg" viewBox="0 0 113.26 113.39"><g id="Layer_2" data-name="Layer 2"><g id="swift"><path d="M113,21.26A25.13,25.13,0,0,0,96.74,1.51,26.46,26.46,0,0,0,87.84,0H25a7.32,7.32,0,0,0-1.42.09A24.91,24.91,0,0,0,10.9,4.38a25.3,25.3,0,0,0-8.55,10A23.62,23.62,0,0,0,0,25.2v63a25,25,0,0,0,2.52,11,25.55,25.55,0,0,0,8.64,9.92,25.2,25.2,0,0,0,12.75,4.21c.93,0,62.68,0,63.87,0a26.57,26.57,0,0,0,7.93-1.16,25.2,25.2,0,0,0,17-19,28.66,28.66,0,0,0,.49-5.85V26.18A30.11,30.11,0,0,0,113,21.26ZM95.54,92.79s-4.38-7.35-11.73-7.35c-7.09,0-11.25,7.35-25.52,7.35-31.75,0-46.77-26.53-46.77-26.53,28.61,18.82,48.15,5.49,48.15,5.49C46.78,64.27,19.36,28.48,19.36,28.48,43.23,48.81,53.55,54.17,53.55,54.17c-6.15-5.1-23.43-30-23.43-30,13.82,14,41.28,33.53,41.28,33.53,7.8-21.61-7.48-40.88-7.48-40.88C101.3,42.25,89.21,70.29,89.21,70.29S99.84,82.29,95.54,92.79Z"/></g></g></svg>