<svg xmlns="http://www.w3.org/2000/svg" viewBox="0 0 156.65 156.66"><g id="Layer_2" data-name="Layer 2"><g id="Layer_1-2" data-name="Layer 1"><path d="M43.29.37c-1.37.74-1.37.83-1.37,10.86v9.58l-20.23.06L1.47,21l-.74.86L0,22.68v132.2l.89.89.88.89H40.39q38.6,0,39.16-.31c1.44-.77,1.38,1.71,1.53-61.32l.15-59.63L96.78,95c9.17,35.25,15.75,59.94,16.09,60.4,1.13,1.56.7,1.65,22.21-4.07,17.9-4.77,20.29-5.47,20.9-6.18a2.74,2.74,0,0,0,.67-1.34c0-.56-31.27-120.58-31.67-121.59A2.77,2.77,0,0,0,122.17,21c-.49.13-9.61,2.54-20.29,5.39-14.62,3.88-19.58,5.32-20.1,5.81l-.7.64v-15c0-16-.06-16.67-1.47-17.44C78.72-.12,44.15-.12,43.29.37Zm32.28,10v5.2H47.12V5.21H75.57Zm0,14.38v4H47.12v-8H75.57ZM41.76,30v3.82L23.5,33.9,5.2,34V26l18.3.06,18.26.09Zm80.5,2.14a50.68,50.68,0,0,1,1.26,5.42c-.19.18-33.14,9-33.63,9S86.68,36.23,87,35.86c.22-.21,33.63-9.18,33.78-9.08S121.5,29.22,122.26,32.13ZM75.57,79.71v45.74H47.12V34H75.57ZM41.92,78.33v39.16H5.2V39.17H41.92ZM125.6,45a7.09,7.09,0,0,1,.36,2.33c-.27.27-33.56,9.08-33.74,8.93A17.43,17.43,0,0,1,91.48,54c-.46-1.63-.52-2.15-.24-2.27,1.1-.4,32.61-8.81,33.16-8.84S125.14,43.14,125.6,45Zm9.6,36.84c4.07,15.6,7.32,28.48,7.22,28.6s-7.71,2.21-16.92,4.66c-11.47,3-16.79,4.37-16.91,4.13-.37-.65-15-57.16-14.91-57.46s7.68-2.36,16.95-4.84c14.32-3.82,16.83-4.4,17-4S131.13,66.18,135.2,81.82Zm8.91,34c0,.06.55,2.23,1.22,4.8a41.11,41.11,0,0,1,1.13,5c-.18.52-33.68,9.33-33.9,8.93a81.64,81.64,0,0,1-2.38-9.79c.18-.18,32.92-9,33.56-9C143.92,115.66,144.11,115.72,144.11,115.78ZM41.76,126.67v3.83l-18.26.09-18.3.06v-8l18.3.06,18.26.1Zm33.81,6.58v2.6H47.12v-5.2H75.57ZM148.08,131c0,.06.62,2.41,1.38,5.29a29.88,29.88,0,0,1,1.13,5.38c-.12.13-7.58,2.15-16.58,4.53l-16.83,4.47c-.36.12-.76-.95-1.83-5.17a43.84,43.84,0,0,1-1.2-5.51c.19-.18,32.92-9,33.57-9C147.9,131,148.08,131,148.08,131ZM41.86,143.56l-.1,7.74-18.26.09-18.3.06v-15.6H41.92Zm33.71,2.69v5.2H47.12v-10.4H75.57Z"/><path d="M11.38,47.73a3.21,3.21,0,0,0-.82,1.32c-.1.37-.16,5.6-.1,11.6.1,10.92.1,10.95.8,11.62s.7.71,11.63.8c6,.06,11.22,0,11.62-.09a3.43,3.43,0,0,0,1.29-.77c.58-.58.61-1.07.61-12.18V48.44l-.7-.65c-.71-.67-.83-.67-12.18-.67C12.42,47.12,12,47.15,11.38,47.73ZM31.21,60.12v7.81H15.6V52.32H31.21Z"/></g></g></svg>