<svg xmlns="http://www.w3.org/2000/svg" viewBox="0 0 146.98 146.68"><g id="Layer_2" data-name="Layer 2"><g id="Layer_1-2" data-name="Layer 1"><path d="M56.32.37a9.78,9.78,0,0,0-4.53,4.69c-.27.91-.37,5.17-.37,15.23v14H46.53v4.17a28.46,28.46,0,0,0,.37,5.44,9.07,9.07,0,0,0,4.71,4.71c1,.28,6.58.37,21.9.37C97,48.93,96,49,98.33,46.48c1.74-2,2-3.09,2-8.07V34.24h-4.9v-14c0-9.91-.09-14.32-.36-15.17a8.41,8.41,0,0,0-1.69-2.7C91.2-.08,91.6,0,73.33,0,62.65,0,57,.16,56.32.37Zm33.5,5.27.77.73V34.24H56.32V6.37l.76-.73.74-.77H89.09Zm5.66,35.18c0,1.41-.12,1.84-.76,2.45L94,44H52.92l-.73-.77c-.64-.61-.77-1-.77-2.45V39.14H95.48Z"/><path d="M66.57,10.2a5.26,5.26,0,0,0-2.75,3.33,67.82,67.82,0,0,0-.1,7.16c.1,5.66.16,6.24.74,7a4.36,4.36,0,0,0,4.07,2.11c1.74,0,1.86-.06,6.58-3.18,5.35-3.55,6-4.38,6-6.77s-.64-3.09-5.93-6.63c-4.16-2.82-5-3.25-6.27-3.37A5.5,5.5,0,0,0,66.57,10.2Zm9.61,9.66a44.71,44.71,0,0,1-3.8,2.7l-3.82,2.51V14.66l3.82,2.51C74.46,18.58,76.18,19.77,76.18,19.86Z"/><path d="M41.94,12.55a69.3,69.3,0,0,0-32,35.1,17.39,17.39,0,0,0-1,2.9,22,22,0,0,0,2.29.86l2.17.76,1.29-3.12A64.58,64.58,0,0,1,44.94,16.53a23.29,23.29,0,0,0,2.51-1.38c0-.55-1.93-4.16-2.24-4.16A24.23,24.23,0,0,0,41.94,12.55Z"/><path d="M100.38,13c-.49,1.13-.92,2.08-.92,2.14A22.16,22.16,0,0,0,102,16.53,69.24,69.24,0,0,1,117,27l1.78,1.59,1.65-1.65,1.68-1.65-1.31-1.35A82.73,82.73,0,0,0,110.93,16c-2.69-1.74-8.72-5-9.27-5C101.45,11,100.9,11.91,100.38,13Z"/><path d="M127.33,26.81c-1.4,3.18-2.6,5.9-2.69,6.09s4.16,2.42,4.38,2.2,5.32-11.93,5.32-12a28.29,28.29,0,0,0-4.25-2A52.29,52.29,0,0,0,127.33,26.81Z"/><path d="M139.57,26.81c-1.41,3.18-2.6,5.9-2.69,6.09s4.16,2.42,4.37,2.2,5.33-11.93,5.33-12a28,28,0,0,0-4.26-2A55.73,55.73,0,0,0,139.57,26.81Z"/><path d="M121.21,40.55a14.1,14.1,0,0,0-.88,2.45,36.72,36.72,0,0,0,4.34,1.89c.18-.24,2-4.56,2-4.71a25.45,25.45,0,0,0-4.25-2A8.63,8.63,0,0,0,121.21,40.55Z"/><path d="M133.45,40.55a14.66,14.66,0,0,0-.89,2.45,37.55,37.55,0,0,0,4.35,1.89c.18-.24,2-4.56,2-4.71a25.45,25.45,0,0,0-4.25-2A8.63,8.63,0,0,0,133.45,40.55Z"/><path d="M102.89,49.57a21,21,0,0,0,2.93,9.92,35.72,35.72,0,0,0,8.6,8.53c2.14,1.23,5.94,2.63,7.19,2.63.8,0,.8,0,.8,2.6v2.61H107.72v4.89h1.38c.76,0,1.37.09,1.37.25s.4,3.33.89,7.12c1,7.35,1.29,8.54,3,10.13a8.94,8.94,0,0,0,2.23,1.44c1.26.58,2,.64,8.26.64s7-.06,8.27-.64a8.94,8.94,0,0,0,2.23-1.44c1.71-1.59,2.05-2.78,3-10.13.49-3.79.88-7,.88-7.12s.62-.25,1.38-.25H142V75.86H127.3V73.25c0-2.6,0-2.6.8-2.6,1.25,0,5.32-1.5,7.31-2.69a36.08,36.08,0,0,0,8.48-8.47,21,21,0,0,0,2.93-9.92l.16-3.18-3.19.15a21.13,21.13,0,0,0-9.91,2.94c-2.11,1.26-7.37,6.43-8.26,8.11a3.8,3.8,0,0,1-.77,1.13,4.62,4.62,0,0,1-.82-1.19c-1.1-1.93-5.2-6-7.62-7.68a20.13,20.13,0,0,0-10.49-3.28l-3.19-.18ZM112,53c1.5.7,2.7,1.65,4.93,3.89,3,3,4.47,5.35,5,8l.21,1-1-.21c-2.6-.56-5-2-8-5s-4.47-5.36-5-8l-.21-1,1,.22A20.69,20.69,0,0,1,112,53Zm29.53-.31c-.55,2.57-2.05,5-5,7.93s-5.35,4.46-7.95,5l-1,.21.21-1a16.61,16.61,0,0,1,4.5-7.5c2.69-2.81,4.56-4.13,7-5S141.77,51.5,141.53,52.66Zm-7.34,29.07c-.1.55-.43,3.27-.77,6.06-.76,6.21-.76,6.27-1.59,7-.61.59-1.07.62-7,.62-8.32,0-7.55.67-8.56-7.65-.34-2.79-.68-5.51-.77-6.06l-.18-1h19Z"/><path d="M74.13,54.29a19.91,19.91,0,0,0-9.58,5.32A19.48,19.48,0,0,0,91.93,87.33a19.34,19.34,0,0,0,3.8-22.8A19.67,19.67,0,0,0,74.13,54.29Zm7.74,4.89a14.63,14.63,0,0,1-1.56,28.7C70.24,89.35,61.58,79.74,64.12,70A14.77,14.77,0,0,1,81.87,59.18Z"/><path d="M75.9,68v4.38l-3.27,3.27-3.31,3.3,1.78,1.75,1.74,1.77,4-4,4-4V63.62H75.9Z"/><path d="M4.92,56.67A9.76,9.76,0,0,0,.39,61.35c-.52,1.78-.52,22.34,0,24.11A9.07,9.07,0,0,0,5.1,90.17a23.6,23.6,0,0,0,4.77.37c4.47,0,5.88-.46,7.68-2.45a7.42,7.42,0,0,0,2.05-5.63V80.75H31.84v1.71a12.75,12.75,0,0,0,.37,3,9.07,9.07,0,0,0,4.71,4.71c1.87.55,8,.49,9.7-.12a8.28,8.28,0,0,0,4.44-4.65c.52-1.68.52-22.3,0-24a8.31,8.31,0,0,0-4.44-4.65c-1.74-.61-7.83-.67-9.7-.12a9.1,9.1,0,0,0-4.71,4.71,12.82,12.82,0,0,0-.37,3v1.71H19.6V64.35a7.42,7.42,0,0,0-2.05-5.63c-1.83-2-3.18-2.45-7.86-2.42A27.53,27.53,0,0,0,4.92,56.67Zm9,5.26.77.74V84.15l-.77.73c-.7.74-.94.77-4.13.77s-3.42,0-4.13-.77l-.76-.73V62.67l.76-.74c.71-.73,1-.76,4.13-.76S13.24,61.2,13.94,61.93Zm31.82,0,.77.74V84.15l-.77.73c-.7.74-.94.77-4.13.77s-3.42,0-4.13-.77l-.76-.73V62.67l.76-.74c.71-.73,1-.76,4.13-.76S45.06,61.2,45.76,61.93ZM31.84,73.41v2.45H19.6V71H31.84Z"/><path d="M94.87,93.33c-1.9.85-10.16,9-11.17,11.1a7.59,7.59,0,0,0-.15,6.27c.76,1.66,6,7.1,8,8.23,1.2.71,1.78.83,4.59.92l3.22.12L110,130.62c9.51,9.43,10.89,10.68,12.2,11.14A7.67,7.67,0,0,0,132,132c-.46-1.32-1.71-2.69-11.13-12.21l-10.65-10.71-.12-3.21c-.09-2.33-.28-3.52-.68-4.28-.94-1.81-6.57-7.35-8.29-8.14A7.7,7.7,0,0,0,94.87,93.33Zm7.28,7.43,3.12,3.15v7.28l11.17,11.17c10.16,10.19,11.17,11.29,11.17,12.21a3,3,0,0,1-2.79,2.78c-.91,0-2-1-12.2-11.16L101.45,115H94.17L91,111.9c-4.44-4.35-4.5-4,1.31-9.79S97.81,96.32,102.15,100.76Z"/><path d="M11.19,95.41c-1.16.39-2.2.79-2.26.82-.22.19,2.14,5.72,3.82,8.94A70.82,70.82,0,0,0,24,120.74l1.35,1.32,1.62-1.66,1.65-1.65-.89-1.07c-.49-.55-1.83-2.11-3-3.46A65.6,65.6,0,0,1,14.4,97.12c-.52-1.35-1-2.45-1-2.48S12.38,95,11.19,95.41Z"/><path d="M61.21,102.78v2.45h4.9v-4.9h-4.9Z"/><path d="M44.08,105.23v2.45H49v-4.9h-4.9Z"/><path d="M128.25,105.78c-.58,1-2,3.09-3.15,4.74a21.5,21.5,0,0,0-2,3.09s.89.73,1.84,1.53l1.74,1.44,1.22-1.56c2.21-2.79,5.79-8.48,5.48-8.69-.06-.06-1-.58-2.08-1.19l-2-1.11Z"/><path d="M71,107.68v2.44H75.9v-4.89H71Z"/><path d="M53.87,110.12v2.45h4.9v-4.89h-4.9Z"/><path d="M61.21,117.47v2.44h4.9V115h-4.9Z"/><path d="M46.53,119.91v2.45h4.89v-4.89H46.53Z"/><path d="M75.9,119.91v2.45h4.9v-4.89H75.9Z"/><path d="M22.05,127.65a8.69,8.69,0,0,0-2.6,1.9,6.72,6.72,0,0,0-1.93,7.31,9.07,9.07,0,0,0,4.72,4.72c.88.24,4.62.36,12.66.36H46.31l1.5,1.41a16.61,16.61,0,0,0,3.55,2.36l2,1H93.52l2.33-1.13a11.73,11.73,0,0,0,5.84-6c1-2,1-2.18,1.07-7.19l.13-5.11-39.87,0C34.87,127.32,22.82,127.41,22.05,127.65Zm22,6.46a12.88,12.88,0,0,0,.18,2.45c.19.43-.85.49-10.24.49H23.55l-.73-.77a2.22,2.22,0,0,1,0-3.36l.73-.77H44.08Zm53.85-.24a12.22,12.22,0,0,1-.37,3,9.09,9.09,0,0,1-4.71,4.72c-1.8.52-37,.52-38.79,0a9.07,9.07,0,0,1-4.72-4.72,12.76,12.76,0,0,1-.36-3v-1.72h49Z"/></g></g></svg>