<svg xmlns="http://www.w3.org/2000/svg" viewBox="0 0 180.42 153.3"><defs><style>.cls-1{fill:none;stroke:#1d1d1b;stroke-miterlimit:10;stroke-width:6px;}</style></defs><g id="Layer_2" data-name="Layer 2"><g id="Layer_1-2" data-name="Layer 1"><path class="cls-1" d="M147,135.11c.16,23.84-39.49,12.1-39.49,12.1s-19.4-3.32-31.11,0c-14.42,4.09-42.88,7.27-42.88-12.1,0-23.08,22.05-63.65,53.66-63.75C125.39,71.24,146.85,107.9,147,135.11Z"/><path class="cls-1" d="M63.23,59.1c11.26,0,20.39-12.56,20.39-28S74.49,3,63.23,3,42.84,15.56,42.84,31.05,52,59.1,63.23,59.1Z"/><path class="cls-1" d="M117.77,59.1c11.26,0,20.39-12.56,20.39-28S129,3,117.77,3,97.38,15.56,97.38,31.05,106.51,59.1,117.77,59.1Z"/><path class="cls-1" d="M176.36,75.92c3.14-10.46-1-21-9.18-23.42s-17.43,4-20.58,14.47,1,21,9.18,23.43S173.21,86.39,176.36,75.92Z"/><path class="cls-1" d="M29,88.81c7.56-4.06,9.49-15.16,4.32-24.78S17.77,49.89,10.22,54,.73,69.11,5.9,78.74,21.4,92.87,29,88.81Z"/></g></g></svg>