<?xml version="1.0" encoding="utf-8"?>
<!-- Generator: Adobe Illustrator 25.2.1, SVG Export Plug-In . SVG Version: 6.00 Build 0)  -->
<svg version="1.1" id="Layer_1" xmlns="http://www.w3.org/2000/svg" xmlns:xlink="http://www.w3.org/1999/xlink" x="0px" y="0px"
	 viewBox="0 0 156 156.6" style="enable-background:new 0 0 156 156.6;" xml:space="preserve">
<g id="Layer_2_1_">
	<g id="Layer_1-2">
		<path d="M155.8,121.6c-0.4-1.6-1.8-2.7-3.4-2.7c-1.7-0.1-1.8-0.2-1-1.1c0.8-0.9,1.6-4.2,1.8-6.8c0.2-1.9,0.4-2.5,0.9-3.1
			c1.6-1.6,0.7-3.2-2.2-4.1c-5-1.5-11.3-1.5-20.5,0.2c-2.4,0.4-4.7,0.8-5.2,0.8c-0.5,0-3-0.4-5.6-0.8l-4.7-0.8V80.7h13.5l1-0.9
			c1.6-1.4,1.4-2.6-0.9-6.2c-0.7-1-1.3-2.1-1.9-3.3c0.5-1.1,1.1-2.2,1.8-3.3c2.3-3.5,2.5-4.8,1.1-6.1l-0.8-0.9l-6.9-0.1l-6.8-0.1
			v-0.7c-0.3-1.3-1.1-2.4-2.2-3.1c-0.6-0.3-6.1-0.4-24.5-0.4H65.6l-1,0.7c-0.6,0.4-1.1,1-1.5,1.7c-0.3,0.8-0.4,8.6-0.4,31v29.9h-6
			l-0.2-3.9c-0.2-4.4-0.7-6.1-2.5-8c-2.1-2.2-2.7-2.4-10-2.5l-6.6-0.1l-7.4-21l-7.4-21l1.3-1.3c0.8-0.8,1.5-1.8,2-2.8
			c1-2.3,1.1-4.9,0.5-7.3c-0.2-0.5-0.3-1.1-0.3-1.6l12.2-9.6c7.7-6,12.1-9.3,12.4-9.2c0.2,0.1,1.3,1,2.4,1.9s2,1.7,2,1.7
			c-0.2,0.5-0.4,1-0.7,1.5c-1.5,3-0.9,4.4,3.4,8c4.3,3.6,4.6,3.8,6.4,3.8c1.8,0,3-0.6,4.6-2.5l1.1-1.4l2.5,1.3
			c2.5,1.2,2.6,1.3,5.5,1.3c2.7,0,3.1-0.1,5-1c2.6-1.2,4.6-3.3,5.9-5.8c0.8-1.6,0.9-2,0.9-5.1c0-3.1-0.1-3.5-0.8-5
			c-0.6-1.1-1.2-2.1-2-3L85.9,25l1-1.1c1.1-1.2,1.8-2.7,2.1-4.3c0-1.8-0.9-3.1-4.2-5.8c-4.3-3.6-4.6-3.8-6.3-3.8
			c-1.4-0.1-2.8,0.5-3.7,1.5l-0.6,0.6l-2.4-2c-0.6-0.5-1.1-0.9-1.4-1.1c0,0,0,0,0,0c-4.2-4-7.2-6.1-8.9-7.1
			c-0.4-0.3-0.8-0.5-1.4-0.8C60.1,1.1,60,1,60,1l0,0c-2.5-1-6.7-1.4-9.2-0.7C43,2.3,38.3,10.2,40.2,18c0.7,2.8,2.2,5.3,4.4,7.3
			c0.8,0.7,1.5,1.5,2.2,2.3c-0.6,0.5-23.2,18.2-23.5,18.4c-0.6,0-1.3-0.1-1.8-0.5c-1.2-0.6-1.9-0.7-4.3-0.7c-2.6,0-3.1,0.1-4.5,0.9
			c-4.7,2.6-6.5,8.6-3.9,13.3c0.9,1.6,2.2,2.9,3.8,3.8c1.2,0.6,2.4,1,3.7,1.1l2.2,0.2l6.8,19.6c3.8,10.8,6.9,19.9,7,20.3
			c0.2,0.6,0.2,0.6-5.6,0.8c-6.3,0.1-6.6,0.2-8.8,2.1c-2,1.8-2.4,2.9-2.6,7.8l-0.2,4.3l-6.5,0.2c-5.9,0.1-6.5,0.2-7.2,0.8
			C0.2,120.8,0,122,0,126.6c0,4.7,0.3,5.9,1.7,7c0.8,0.6,1.2,0.7,7.1,0.7H15v20.8l0.8,0.7c0.7,0.8,2,1,2.8,0.2
			c0.1-0.1,0.2-0.2,0.2-0.2l0.8-0.7v-20.9l2.8,0.1l2.8,0.1l0.1,10.4c0.1,10.2,0.1,10.4,0.7,11.1c1.2,1.3,3.1,0.7,3.6-1.2
			c0.2-0.6,0.3-5.4,0.3-10.7v-9.7h10c0.8,0,1.5,0,2.1,0v0h16.4h8.4h59.2v9.8c0,5.3,0.1,10.2,0.3,10.7c0.5,1.9,2.4,2.5,3.6,1.2
			c0.6-0.7,0.7-0.9,0.7-11.1l0.1-10.4l2.8-0.1l2.8-0.1v20.9l0.8,0.7c0.7,0.8,2,1,2.8,0.2c0.1-0.1,0.2-0.2,0.2-0.2l0.8-0.7v-20.9h6.2
			c5.9,0,6.3,0,7.1-0.7c1.4-1.1,1.7-2.3,1.7-6.7C156.1,125.1,156,123.4,155.8,121.6z M116,64.5h4.7c1.6-0.1,3.1,0,4.7,0.2
			c-0.4,0.8-0.9,1.6-1.4,2.4c-0.7,1-1.2,2.1-1.4,3.3c0.2,1.2,0.6,2.3,1.4,3.3c0.5,0.8,1,1.5,1.4,2.4c-1.6,0.2-3.2,0.2-4.7,0.2H116
			V64.5z M85.3,34c0.2,1.3-0.1,2.7-0.8,3.8c-1.9,3.6-6.4,5-10,3.1c-0.1,0-0.2-0.1-0.3-0.1l-1.1-0.7l4.9-5.8c2.6-3.2,4.9-5.7,5.1-5.6
			c0.5,0.5,0.9,1,1.2,1.6v0C85,31.5,85.3,32.8,85.3,34z M78.5,14.6c1.1,0.7,2.1,1.5,3.1,2.4c1,0.8,2,1.6,2.8,2.6
			C84.2,20,64.7,43,64.5,43c-1-0.7-2-1.4-2.9-2.2c-1.4-1.2-2.8-2.3-2.9-2.4C58.5,38.3,78,14.6,78.5,14.6z M46.1,20.1
			c-2.6-4-2.1-9.3,1.3-12.6c2.3-2.4,5.7-3.4,8.9-2.7c0.2,0,0.4,0.1,0.6,0.2c0.3,0.1,0.6,0.1,0.8,0.2c0.1,0,0.2,0.1,0.3,0.1
			c2.5,1,6.8,4.6,9,6.6c0.3,0.3,0.8,0.8,1.5,1.4c0,0,0,0,0,0l0,0c0.1,0.1,0.2,0.2,0.3,0.3c2.2,1.9,2.4,2.1,2,2.6
			c-1,1.5-12.3,14.7-12.5,14.7C57.8,30.8,46.8,21.2,46.1,20.1z M20.5,58.2c-2.2,1.8-5.4,1.5-7.2-0.7c-1.8-2.2-1.5-5.4,0.7-7.2
			c1.6-1.3,3.8-1.5,5.6-0.6c1.7,0.9,2.8,2.7,2.8,4.6C22.4,55.7,21.7,57.2,20.5,58.2z M132.8,108.5c2.1-0.9,14.4-1.5,15.6-0.8
			c0.2,0.2,0.3,1.1,0.1,2.8c-0.2,3.2-1.4,5.9-3.1,7c-1.9,1.1-4.2,1.5-6.4,1c-2.5-0.5-3.3-0.9-4.7-2.5c-1.3-1.6-2.1-3.6-2.2-5.7
			C132.1,109,132.1,108.8,132.8,108.5z M122.8,116.9c1-2,1.6-4.1,1.8-6.3v-1.2h3l0.2,1.4c0.3,2.2,1,4.4,2,6.4l0.9,1.6h-4.5
			c-1.5,0.1-2.9,0-4.3-0.2C121.9,118.6,122.3,117.7,122.8,116.9z M116.3,107.9l2.9,0.5l0.9,0.2l-0.2,2.1c-0.1,2.4-1.2,4.7-3,6.4
			c-2.3,1.9-6.7,2.2-9.5,0.8c-2.4-1.2-3.7-4.3-3.5-8.1l0.1-2.1l1.4-0.2C108.9,107.4,112.6,107.5,116.3,107.9z M67.3,60.2h44.1v21.2
			v21.2l-3.6,0.2c-3.9,0.2-8,1.1-9.2,2c-1,0.7-1.2,2-0.5,3c0.1,0.1,0.2,0.2,0.3,0.3c0.7,0.5,0.7,0.9,0.9,3.2c0.1,2.5,0.8,4.8,2,7
			l0.4,0.7H67.3V60.2z M20.2,110.9c0.3-0.5,0.8-0.9,1.3-1.2c0.9-0.6,1.7-0.6,14.3-0.6c10,0,13.5,0.1,14.1,0.4c0.5,0.3,1,0.7,1.4,1.2
			c0.6,0.8,0.6,1.3,0.6,4.4v3.6l-16,0.1l-16,0.1v-3.7C19.8,113.8,19.9,112.4,20.2,110.9z M151.4,126.7l-0.1,3.1l-46.6,0.2
			c-19.9,0.1-31.3,0.1-37.9,0.2v-0.1H42.1v0c-3.3,0-8-0.1-14.6-0.1l-22.7-0.2l-0.1-3.1l-0.1-3.1h146.9L151.4,126.7z"/>
		<path d="M79.8,66.6c-2.8,0.9-3,1.4-3,8.6c0,9.1-0.7,8.6,12.6,8.6c9.1,0,9.9-0.1,10.8-0.6c1.7-1,2-2.1,2-8s-0.2-6.8-1.9-8
			c-0.8-0.6-1.3-0.6-10.2-0.7C84.8,66.4,80.2,66.5,79.8,66.6z M97.6,75v4.1H81.1v-3.9c-0.1-1.4,0-2.8,0.2-4.1
			c0.1-0.1,3.8-0.2,8.3-0.2h8L97.6,75z"/>
	</g>
</g>
</svg>
