<svg xmlns="http://www.w3.org/2000/svg" viewBox="0 0 151.76 151.76"><g id="Layer_2" data-name="Layer 2"><g id="Layer_1-2" data-name="Layer 1"><path d="M49.72.76,49,1.5V19.58H6.39l-.73.77-.76.73V53.85H3.21c-1.4,0-1.83.12-2.45.76L0,55.35v55.74l.76.74.74.76H29.37V118c0,5.29,0,5.38.77,6.12s.88.76,4.89.76h4.13v25.43l.77.73.73.77H62.14l.73-.77.77-.73V124.83h4.13c4,0,4.19,0,4.9-.76s.76-.83.76-6.12v-5.36H88.12v37.67l.76.73.74.77h60.64L151,151l.77-.73v-46l-.77-.73-.73-.77H102.8V83.22h47.46l.73-.76.77-.74V1.5L151,.76,150.26,0H50.45Zm97.14,13.93v9.79H68.53V22.79c0-1.4-.12-1.83-.76-2.44-.73-.77-.73-.77-7.34-.77H53.85V4.9h93ZM63.64,39.16V53.82l-1.25-.43c-.68-.24-1.78-.58-2.45-.76l-1.2-.34V30.87L58,30.14l-.73-.77H16.19l-.74.77-.76.73v23H9.79V24.48H63.64Zm83.22,14.69V78.33H102.8v-23l-.76-.74c-.61-.64-1-.76-2.45-.76H97.91V49.72c0-4,0-4.19-.77-4.9l-.73-.76H79.82l-.73.76c-.73.71-.76.89-.76,4.9v4.13h-9.8V29.37h78.33Zm-93-11V51.4H51.49a35.2,35.2,0,0,0-10.15,1.68c-2.27.77-2.39.77-12,.77H19.58V34.27H53.85ZM93,51.4v2.45H83.22V49H93ZM56.14,56.76A27.08,27.08,0,0,1,77.5,76.64a30.74,30.74,0,0,1,0,13.16,26.86,26.86,0,1,1-21.36-33ZM28.58,61.25A25.72,25.72,0,0,0,23,69a31.31,31.31,0,0,0,0,28.46,27.74,27.74,0,0,0,5.72,7.86L31,107.7H4.9v-49H31ZM97.91,80.77v22H93.78c-4,0-4.2,0-4.9.77s-.76,1-.76,2.44v1.69H71.81l2.26-2.39a27.74,27.74,0,0,0,5.72-7.86,31.31,31.31,0,0,0,0-28.46,28.27,28.27,0,0,0-5.72-7.89l-2.26-2.36h26.1Zm49,46.51v19.58H93V107.7h53.85ZM41.34,113.36a32.1,32.1,0,0,0,20.25,0,13.18,13.18,0,0,1,4.56-.74h2.38v7.35H34.27v-7.35h2.38A13.62,13.62,0,0,1,41.34,113.36Zm17.4,22.49v11H44.06v-22H58.74Z"/><path d="M117.49,14.69v2.44h4.89V12.24h-4.89Z"/><path d="M127.28,14.69v2.44h4.89V12.24h-4.89Z"/><path d="M137.07,14.69v2.44H142V12.24h-4.9Z"/><path d="M108.46,35l-.76.74V71.93l.76.74.74.76h31.27l.73-.76.77-.74V35.77L141.2,35l-.73-.76H109.2Zm28.61,18.82V68.53H112.59V39.16h24.48Z"/><path d="M47.55,61.5a21.49,21.49,0,0,0-11.63,6.27,21,21,0,0,0-5.57,9c-.67,2-.79,2.88-.76,6.49s.09,4.41.79,6.58A21,21,0,0,0,36,98.67a20.94,20.94,0,0,0,8.87,5.57c2.18.7,2.94.8,6.58.8s4.41-.1,6.58-.8a20.94,20.94,0,0,0,8.87-5.57,20.94,20.94,0,0,0,5.57-8.87c.7-2.17.8-2.94.8-6.58s-.1-4.4-.8-6.58a20.94,20.94,0,0,0-5.57-8.87,20.13,20.13,0,0,0-14.53-6.43A29.66,29.66,0,0,0,47.55,61.5Zm7.09,4.92A17.47,17.47,0,0,1,66.7,75.69c4.62,9.61-.09,20.44-10.4,23.93a20.27,20.27,0,0,1-9.79,0c-8.3-2.78-13.22-10.52-12-18.88A17.1,17.1,0,0,1,43.84,68,16.41,16.41,0,0,1,54.64,66.42Z"/><path d="M83.22,66.09v2.44H93V63.64H83.22Z"/><path d="M110.91,113.36l-.76.73v26.38l.76.73a2.44,2.44,0,0,0,1.59.77c.58,0,4.22-2.12,11.26-6.52,8.2-5.14,10.46-6.67,10.68-7.34.67-1.84.4-2.09-10.68-9-7-4.41-10.68-6.52-11.26-6.52A2.44,2.44,0,0,0,110.91,113.36Zm10.34,10a59.58,59.58,0,0,1,5.88,4c0,.24-11.57,7.65-11.94,7.65-.09,0-.15-3.46-.15-7.65s.06-7.65.15-7.65S118,121.28,121.25,123.33Z"/></g></g></svg>