<svg version="1.1" id="Layer_1" xmlns:vectornator="http://vectornator.io"
	 xmlns="http://www.w3.org/2000/svg" xmlns:xlink="http://www.w3.org/1999/xlink" x="0px" y="0px" viewBox="0 0 382 515.4"
	 style="enable-background:new 0 0 382 515.4;" xml:space="preserve">
<style type="text/css">
	.st0{opacity:0.6795;}
	.st1{fill:#FFCF16;}
	.st2{fill:#CBCACA;}
	.st3{fill:#A1A1A1;}
	.st4{fill:#704D40;}
	.st5{fill:#493027;}
	.st6{fill:#EEC1A5;}
	.st7{fill:#DEA487;}
	.st8{fill:#FFFFFF;}
	.st9{fill:#EAEAEA;}
</style>
<g id="Katman_1" vectornator:layerName="Katman 1" class="st0">
	<g transform="matrix(0.991426 0 0 0.991426 -846.096 -266.18)">
		
			<image style="display:none;overflow:visible;enable-background:new    ;" width="2389" height="2050" id="Image" xlink:href="3A18B1880C4644BD.png"  transform="matrix(0.3687 0 0 0.3687 -297.0839 -112.9951)">
		</image>
	</g>
</g>
<path class="st1" d="M334,242.5c-2.5-0.7-4.7-1.4-4.7-1.4c-0.4-0.4,0.7-3.1,1.7-3.9c1.3-1.3,1.5-3,0.6-5.6c-0.3-0.9-0.6-2.9-0.6-4.8
	c0-5.9-0.8-13.9-2-21.3l-1.2-7.3l1.3-3.6c1.9-5.6,3.9-13.2,6.3-24c3.2-14.8,3.1-16.5-1.9-30.2c-1.3-3.6-3.4-8.9-4.6-11.7
	c-1.3-2.9-2.3-5.3-2.3-5.5c0-0.1,2.3-1.5,5.1-2.9c9.2-4.8,14.1-8.5,15.8-11.7c1.6-3.2,1.3-7.2-1.2-12.3c-3.1-6.3-7.7-11.7-17-20
	c-6-5.4-12.4-10.2-14.1-10.7c-1.4-1.3-2.7-2.5-3.8-3.7c0.6-3.7,0.7-7.4,0.3-10.2c-0.7-4.2-1.8-6.4-5.2-9.6c-6.1-6-8.7-6.6-17.7-4.4
	c-12.3,3.1-32.3,5-48,4.6l-5.8-0.1l-5.3-2.5c-2.9-1.4-6.2-2.9-7.4-3.4c-29-12-44.9-18.4-49.1-19.4c-2.8-0.8-10.3-1.8-11-1.6
	c-0.1,0-1.1,0.1-2.2,0.2c-6.5,0.4-16.2,2.2-31.7,5.8c-13.6,3.2-20.8,4.6-26.4,5c-5.5,0.4-10.4,0-12.8-1c-0.9-0.4-1.9-0.7-2.2-0.5
	c-0.7,0.2-1.1,1.7-0.8,2.7c0.1,0.4,0,1.6-0.2,2.7c-0.4,2.5,0.1,6.4,1.6,11.1l1.1,3.5l-4.5-0.4c-6.7-0.4-19.7-1.7-22.5-2.3
	c-2-0.4-2.7-0.7-3.5-1.7c-0.5-0.6-1.1-1-1.3-0.9c-0.4,0.3-0.9,3.1-0.8,4.7c0,0.7,0.4,2.8,0.8,4.5l0.7,3.2l-1.8,5.4
	c-3,8.8-3.2,10.2-3.2,19c0,5.8,0.1,8.1,0.6,9.6l0.6,2l-1.5,0.8c-3.5,1.8-16.5,11.5-24.3,18.2c-4.2,3.6-8.4,8.1-8.2,8.9
	c0.1,0.4,0.8,0.6,2.2,0.8c3,0.4,7.8,1.5,8,1.9c0.1,0.1-0.5,1.3-1.3,2.4c-2.7,4.1-9,15.1-12,21c-7.4,14.7-9.9,22.5-13.2,40.6
	c-2.5,13.7-4.1,30.1-3,31.2c0.7,0.7,1.3-0.4,3.7-7c1.2-3.1,2.2-6,2.4-6.3c0.2-0.4,0.4,0.7,0.6,3.2c1,16.3,8,40.8,19.3,67.3L29,277
	l-0.2,3c-0.4,5.6,1.2,13.3,4.4,20.1c1.4,3,1.5,3.3,1,4.1c-1.2,1.9-2.2,5.3-2.2,7.7c-0.1,3,0.9,4.8,2.9,5.8c1.8,0.9,5.2,0.6,7.6-0.6
	l1.8-0.8l2.2,2.3c1.2,1.3,2.1,2.6,2.1,2.9s-0.3,1.6-0.5,2.8c-1.4,7,4.1,10.3,10.5,6.3l1.4-0.9l1.7,1.7c1.8,1.9,1.9,2.1,2.2,6
	c0.4,6.3,4.2,10.2,8.3,8.5c0.7-0.3,1.4-0.5,1.4-0.5c0,0.1,1.8,1.9,4,4.2l3.9,4.1l-0.3,6.6c-0.4,8.8-2.3,25-3.9,34.5
	c-2.4,14.2-5.8,29-10.8,47.3c0.6,0.7,1.2,1.5,1.8,2.3c0,0.2-0.1,0.3-0.1,0.5c1.9,2.6,3.8,5.4,5.4,8.7c7.6,15.3,11,12.6,15,4.7
	c4-7.9,10-5,21.9,12c12,16.9,20.3,13.3,26.2,13.3c5.9,0,22.6,8.7,28.2,20.6c1.6,3.4,6.6,7.3,12.8,11c0-0.2-0.1-0.5-0.1-0.7
	c0.5,0.3,1,0.6,1.5,0.9c-3.8-24.2-5.3-47.4-5-75c0.1-8,0.3-14.7,0.4-14.8c0.1-0.1,1.7,0.7,3.5,1.8c11.5,6.9,15.7,8.6,25.1,10.1
	c9.5,1.5,16.6,1.9,22.9,1.4c9-0.7,13-2.2,18.2-6.5c8.4-7,25-23.5,31.5-31.4c3.4-4.1,18.4-24.9,23.4-32.4
	c11.7-17.7,17.1-28.2,18.8-36.3c0.4-2,0.9-6.4,1.2-10l0.4-6.4l2.2-0.4c2.6-0.4,6.2-2.2,7.9-3.7c5.3-4.9,10.3-15,19.5-39.7
	c4.5-12.5,4.2-16.7-1.8-22.8C344.2,246.2,340.6,244.4,334,242.5z M331.1,244.4c3.5,0.9,8,2.4,9.9,3.4c2,1,5.5,3.7,5.5,4.3
	c0,0.2-0.1,0.3-0.4,0.1c-1-0.6-14.8-2.4-18.7-2.4c-0.4,0-0.7-0.2-0.7-0.4c0.2-0.8,1.7-5.6,1.9-5.6
	C328.7,243.8,329.9,244.1,331.1,244.4z M37.4,315c-1.2,0-2.2-1.3-2.2-2.9c0-1.7,1.2-5.5,1.6-5.1c0.1,0.2,1.3,1.7,2.6,3.4
	s2.2,3.2,2.2,3.2C41.3,313.9,37.8,315,37.4,315z M53.2,329.6c-1.6,0-2.7-1.2-2.7-3.1c0-1.5,0.3-3,0.7-3c0.1,0,1.4,1,2.8,2.1
	c1.5,1.2,2.6,2.2,2.7,2.4C57,328.5,54.6,329.6,53.2,329.6z M69.2,343.2c-0.9-0.5-1.9-2.6-1.9-3.8c0-0.7,0.3-0.5,1.9,1.2
	c1,1.1,1.8,2.2,1.9,2.3C71,343.5,69.8,343.6,69.2,343.2z M349.9,257.9l0.3,1.7c0.3,1.8-0.2,3.4-5,15.9c-9.3,24.3-14.8,34-20.7,36.7
	c-1.1,0.5-2.8,1-3.7,1.2l-1.7,0.2l0.1-11.3c0.2-13.6,0.7-23,1.6-28.3c0.3-2.2,0.7-4.1,0.8-4.2c0.1-0.1,2.3-0.4,4.9-0.8
	c2.6-0.3,5.4-0.9,6.1-1.2l1.4-0.6l-3.9-0.5c-3.5-0.4-5.6-1.2-5.6-1.9c0-0.4,1.5-1.8,2.8-2.4c0.6-0.3,2.2-1.3,3.6-2.2
	c1.3-0.9,2.8-1.8,3.2-2c0.8-0.5,1-0.4-3.2-0.6c-2.6-0.1-5.3-1.5-5.5-2.8c-0.1-0.7,0-0.9,0.6-0.6c0.4,0.1,3.4,0.7,6.6,1.2
	c11.4,1.7,13.8,2,15.5,2.3L349.9,257.9z"/>
<g>
	<g id="saç_gri" vectornator:layerName="sa‚àö√ü gri ">
		<path class="st2" d="M118.9,31c-15.7-2.1-15.6-1.3-31.3-3.3c-0.1,2.4,6.3,5-0.1,11.8S85,74,85,74s-13.5,8.2-18.2,11.8
			c-6.5,4.9-10.3,7.8-16.2,13.3c5.2,1.8,11.7,2.9,16.4,5.6c5.9,3.3,9.8,9.9,16.1,12.4c12.5,5,27,4.1,39.3,9.6c7,3.1,5.8,9.5,14,13.6
			c8.3,4.1,13.3,2,18.4,3.8c3.2,1.1,65.9-6,86.9-9.8c18.2-3.3,78.5,3.8,83.6,9.6c3.4,3.9,7.4,7.6,12.2,9.6c4.4,1.8,9.6,2.7,14.1,1.3
			c5.2-1.6,10-5.2,13.3-9.6c1.8-2.4,1.2-6.1,0.4-8.9c-3.1-10.1-6.4-18.7-10.5-28.5c7.2-4.4,14-8,20-14c2.2-2.2,2.1-6.5,0.9-9.5
			c-2.3-5.7-6.3-10.7-10.6-15c-8-8.1-18.6-17.1-25-23.7c-3.5-3.6,0.5-8.6-1.5-13.1c-1.8-4.3-9.2-11.1-18.4-8.5
			c-9.2,2.7-29.7,7.8-50.7,4.3c-26.3-4.4-48.5-22.6-75-25.9C175.4,0,156.8,10.3,137.7,13c-6.4,0.9-12.8,0-19.3-0.1
			C118.7,21.9,118.7,21.9,118.9,31z"/>
		<path class="st3" d="M117.4,12.4c3.9,4,8,4.5,13.2,5.9c11.1,3,20.2-0.1,31-2.1c12.9-2.4,34.1-3,44.8,6.3
			c4.2,3.6-11.3,13-13.5,12.3c-3.5-1.2-12.9-6.5-16.7-8.3c-6.3-3.1-12.1-2.2-18.8-2.3c-13.6-0.2-23,10.3-36.6,6.4L117.4,12.4z"/>
		<path class="st3" d="M186.6,57.7c-0.2-0.2-0.5-0.6-0.2-0.8c0.9-0.5,2.1-0.6,3.1-0.9c3.8-1.2,7.4-3.5,10.9-5.3
			c3.2-1.6,7-3.1,9.8-5.3c3.2-2.6,6.5-6.3,10.8-7.1c1.4-0.3,3.7,1,4.9,1.4c3.9,1.3,7.4,3.3,11.3,4.4c2.1,0.6,4.4,1.1,6.5,1.8
			c0.6,0.2,1.3,0.2,1.9,0.3c0.3,0,0.9-0.1,0.8,0.1c-0.4,0.6-3.1,0.5-3.7,0.5c-3,0.1-6.4,1.3-9.4,1.8c-5.5,1-10.7,3-16.2,4
			c-6.3,1.2-12.7,1.4-18.9,3.1c-2.9,0.8-5.7,1.2-8.6,2.1c-0.3,0.1-2,0.8-2.3,0.7C187,58.2,186.8,58,186.6,57.7z"/>
		<path class="st3" d="M92.6,90.8c6.6,5.7,8.3,7.5,14.9,13.2c-5.9-0.1-6.7,1-17.4-0.8c-10.7-1.7-12.7-4.7-20.7-6.4
			c-7.9-1.6-10.6,0.6-15.5,2.2c3,0.2,4.2,0.6,6.9,2c11.1,5.5,20,15.3,31.6,19.6c9.5,3.6,20.7,2.4,30,6.5c5.5,2.4,6.4,7.6,11,11.4
			c3.4,2.8,8,3.8,12.3,4.7c3.1,0.6,6.6,1,9.5-0.3c11.7-5.4,21.7-14,33.3-19.3c11.2-5.2,23.3-8.1,35-12.2c-7.4,0.1-3.2-2.6-22.1,0.4
			c-22,3.5-36.8,17.1-56.3,11.5c-17.8-5.1-27.4-20.4-36.1-26.2C103.5,93.3,98.8,93.6,92.6,90.8z"/>
		<path class="st3" d="M103.6,51c9.1,8.8,11.9,9.4,20.1,14.3c2.3,1.4-0.3-5.7,0.8-3.3c-1.2-3.3,17.9,19,28.7,27.8
			c9,7.3,19.4,12.6,30,17.2c6.5,2.8,15.1,3.2,22,4.8c-7.9,1-17,4.4-24.8,3.1c-11.5-2-18.8-6.8-28.1-11.3
			c-18.6-9-20.2-16.5-29.5-23.9c-4.7-3.7-14.4-9.4-20.3-10.2c-6.9-1-10.2,2.4-17.1,3.9c-0.2-6.8-1.6-15-0.9-21.7
			c0.8-6.7,2.8-11.2,4.5-17.8C94.9,41,94.6,42.2,103.6,51z"/>
		<path class="st3" d="M233.9,87.4c-2.9,4.3-11.3,8.3-11.5,13.5c8.5-1.2,20.8-1.7,29.2-3.6c1.4-0.3,2-2.1,3-3.1
			c-2.2-4-5.2-8.6-9.6-9.9c-1.8-0.6-3.5,1.2-5.3,1.7"/>
		<path class="st3" d="M266,50.5c8.2-0.7,16.5-0.8,24.7-2.2c11.7-2,36.8-10.9,37.9-7.6c4.4,13.7-8.8,32.5-15.7,45.1
			c3.3-12.9,3.3-12.9,6.6-25.8c-9.7-0.4-19.6,0.8-29.1-1.1c-9.8-1.9-18.8-6.7-28.2-10.1"/>
		<path class="st3" d="M320,91c7.3-5.9,20.5-14,21.1-18.6c0.6-4.7-3.8-14.6-5.3-11.9c-3.9,6.5-8.9,16.4-13.7,25.6"/>
	</g>
	<g id="kahve_saç" vectornator:layerName="kahve sa‚àö√ü">
		
			<image style="overflow:visible;enable-background:new    ;" width="29" height="29" xlink:href="3A18B1880C4644BF.png"  transform="matrix(0.3404 0 0 0.3404 191.6353 85.4925)">
		</image>
		<path class="st4" d="M231.7,120.9c-0.1,0.1-0.3,0.1-0.4,0.2"/>
		<path class="st4" d="M190.2,92.8c7.9-0.5,12.8-1.6,21.6-4.8c21.4-7.8,40-30.7,60.8-9.8c3.9,3.9,7.2,8.4,10.4,12.9
			c-10.1-6-19.1-10.4-31.3-8.5c-9.1,1.4-18.6,4.7-27.2,7.8C214.2,93.9,200.7,94.7,190.2,92.8z"/>
		<path class="st4" d="M288.8,97.4c1.1,2.3-2.4-14.6-2.7-17c-1.7-12.1,13.9,3.6,16.3,1.5c3.3-3,5.4-15.3,7-14.1
			c1.3,0.9,1.1,12.3,0.5,16.1c-1.8,10.7-6.7,19.6-10.6,29.7c-5.3,13.7-6.9,1.4-7.7-4.8"/>
		<path class="st4" d="M333.4,99.8c8.8-8.5,13.5-16,12.5-16.5c-1-0.4-12.7,8.1-27.4,10.2c-0.7,0.1-1.1,0.8-1.5,1.3
			c-3.9,4.2-7.8,8.5-11.6,12.8c-0.5,0.6-0.8,1.3-1.1,2c10.5,0.3,18.7,4.1,29.3,3.5c13.3-0.9,25.9-8.6,36.3-15.8
			c-11.4,1.6-20.9,2.5-33.2,0.9"/>
		<path class="st4" d="M308.7,110.7c15.2,5.1,27.7,8.4,28.3,8.1c0.2-0.1-2.7-2.9-0.8-3.1c1.9-0.2,8,3,8.4,2.8s-0.1-0.9,0.4-1.1
			s2.9,2.1,3.2,1.8c0.2-0.2-0.3-5.4,0.6-5.7c1.7-0.7,3.7,5.3,4,5.3c0.8,0,1.3-5.3,3.7-6.6c2.9,10.5,9.1,21.4,9.2,32.4
			c0.1,11.5-6.3,27.9-8.9,39.2c-2.5-4-4.5-13.1-6.4-17.4c-5.9-13.3-9.6-27.6-16-40.6c-0.8-1.6-3.2-2.1-5-2.3
			c-3.6-0.3-7.3,1.4-10.8,0.9c-4.1-0.6-7.6-3.3-11.6-4.1c-3.8-0.8-7.8-0.3-11.7-0.5c3.9-4.3,3.9-4.3,7.7-8.7"/>
		<path class="st4" d="M60.5,257.7c-1.7-0.3-2.4-3.4-2.9-4.5c-1.6-3.6-3.2-7.4-4.5-11.2c-4.2-11.6-8.6-23.1-11.3-35.2
			c-1.1-4.7-1.7-9.4-2.6-14.2c-0.3-1.9-0.8-3.8-1.1-5.7c-0.2-1.3-0.1-2.8,0-4c0-0.3,0.3-4.4,0.2-4.5c-0.6-0.4-1.6,2.6-1.7,2.8
			c-1.3,3.3-2.4,6.7-4,10c-0.5,1.1-0.7,2.4-1.1,3.5c0,0.1-0.1,0.4-0.2,0.3c-0.3-0.1-0.2-0.5-0.2-0.8c-0.2-1.8,0.3-3.8,0.5-5.5
			c0.5-5.8,1.7-11.6,1.8-17.5c0.1-4.7,1.3-8.7,2.3-13.1c2.4-10.6,6.1-21.4,10.9-31.2c1.4-2.9,3.3-5.5,4.9-8.3
			c2.7-4.6,5.7-8.9,9-13.1c0.2-0.3,1.5-2.6,1.8-2.7c0.6-0.1,4.6,2.8,5.3,3.2c2,1.2,4.2,2,6,3.7c1.2,1.1,1.4,2.8,2.8,3.8
			c2.5,1.8,5.4,3.2,8.1,4.8c1.6,0.9,3.2,2.3,5,2.7c2.8,0.6,6.4-0.5,8.8,0.1c2.5,0.7,4.9,3.1,7.4,3.3c5.2,0.3,11.3-0.4,16.1,2.3
			c1.9,1.1,2.4,2.9,3.7,4.4c3.2,3.6,7.2,8.4,11.7,10.5c4,1.8,7.4,2.7,11.9,2.8c1.1,0,3.8-1,4.7,0c0.1,0.1-1.1,2.4-1.2,2.7
			c-1.1,2.7-2.3,5.2-3.6,7.8c-3.2,6.5-5.2,13.4-8.3,19.9c-2,4.2-4,8.3-5.8,12.5c-1,2.3-1,4.7-1.7,7c-0.1,0.2-1,3.1-0.8,3.1
			c0.5,0,1.1-1.3,1.4-1.6c1.1-1.3,2.5-2.4,3.4-3.7c0.1-0.1,1.2-1.6,1.2-1.6c0.2,0.2-0.9,4.8-0.9,5.3c-0.9,4.3-1.7,8.5-3.1,12.8
			c-1.2,3.5-2.3,7.6-2.9,11.4c-0.3,1.9-0.4,4-0.9,5.8c-2.6,8.7-4.7,17.4-8.3,25.6c-1.9,4.4-1.3,9.5-4.6,13.2
			c-0.8,0.9-2.1,1.3-3.1,2.1c-3.7,3.2-7,6.9-11.2,9.7c-7.3,4.8-19.2,5.1-26.8,1c-1.7-0.9-3-2.4-4.4-3.5c-1.3-1-2.9-1.6-4-2.8
			c-1.4-1.6-2.5-3.5-3.6-5.3"/>
		<path class="st4" d="M531.9,178.6c0-0.3,0-0.7,0-1"/>
		<path class="st4" d="M307.2,106.3c-1.2,0-2.1,0.3-3.2,0.8c-0.7,0.4-1.4,0.8-1.8,1.5c-0.4,0.6-0.6,1.3-0.7,2
			c-0.2,2.6,3.1,3.2,4.9,2.5c0.8-0.3,1.4-1,2-1.5s1.4-1.9,1-2.6"/>
		<path class="st4" d="M97.3,318.6c0.6,2.5,2.6,4.1,4.2,6c1.9,2.3,3.7,4.6,5.7,6.8c1.4,1.5,2.7,3,4,4.6c0.4,0.5,0.7,0.9,1,1.4
			c0.2,0.3,0.5,1.2,0.7,0.9c0.2-0.3-0.2-0.7-0.3-1.1c-0.3-1.3-0.5-2.5-0.5-3.8c-0.1-1.4,0-7.8-0.8-8.8c-0.4-0.4-2.2-0.5-2.7-0.7
			c-1.5-0.5-3.2-0.4-4.7-0.9c-1.4-0.5-2.8-1.5-4.3-1.6"/>
	</g>
	<g id="kahve_saç_gölge" vectornator:layerName="kahve sa‚àö√ü g‚àö‚àÇlge">
		<path class="st5" d="M300.6,114.9c4.4-7.9,9.7-12,14-18.4c5-7.4,9.5-15.4,12.7-23.7c0.9-2.3,3.3-13.2,1.8-14
			c-1.2-0.6-9.4,11.3-12.3,16.7c-5.8,11.2-11.2,26.6-17.6,37.7c-1.7,2.9-2.8,3.7-4,6.7"/>
		<path class="st5" d="M292.4,115.4c-2.1-5.3-0.8-11.3-3.6-16.4c-9.2-16.6-29.8-18.3-46.3-14.9c1.3,3.9,8.1,7.4,7.2,7.8
			c-4.8,1.9-16.1,4.9-23.3,4.9c-4.2,0-14.5,12.2-22.6,15.3c3,0.6,10.4,2.9,15.2,2.7c4.8-0.3,10.1,1,16.7,2.3
			c8.4,1.7,16.7,4.3,25.2,5.8c8.3,1.5,11.7,0.6,19.7-0.3"/>
		<path class="st5" d="M150.6,152.3c-5.1,0.4-5.8,1.4-18.1-5.2c-12.1-6.5-26.4-16.9-31.7-18.7c-1.7-0.6,10.3,9.4,11.2,11.1
			c0.8,1.7-19.4-14.1-31.3-12.8c-10.2,1.1-18.3,12.4-20.7,19.9c-8.3,25.5-9.3,56.3-7.1,59.7c0.9,2,5.1-16.2,6.1-15.1
			c1.1,1.1-0.7,27.6,6.2,56.5c0.9,3.7-2.9,8.2-4.8,11.5c-10.7-26.4-15.3-35.7-22.9-77.6c-3.6,6.1-3.6,6.1-7.3,12.4
			c3.8-17.5,5.3-35.6,11.4-52.5c4.9-13.6,13.8-26.6,20.9-39.2c9,5.5,17.6,14.1,27.5,17.9c9.7,3.8,21.1,1.6,30.5,5.9
			c7,3.2,10.3,11.7,16.8,15.8c4.3,2.7,10.2,1.9,14.8,4c0.9,0.4,0.2,1.9,0.3,2.8"/>
		<path class="st5" d="M78,124.1L78,124.1"/>
		<path class="st5" d="M75.2,124.1c0,0.1,0,0.1,0,0.2"/>
	</g>
	<g id="yüz" vectornator:layerName="y‚àö¬∫z">
		<g>
			<path class="st6" d="M354.9,181.4c-2.2-8.7-11.8-35.7-10.3-31.7c1.4,4.1-5-12.5-5.9-15.1c-0.4-1.2-2.3-6.9-2.5-7.2
				c-0.2-0.4-16.5-7.9-17.2-8.2c-3.2-1.2-8-3.3-13.6-4.4s-8.6,0.8-12.9,0.4c-3.7-0.4-7.7-1.7-12.4-2.4c-5.3-0.8-9.5-0.7-12.8-0.5
				c-3.3,0.2-8.8,0.7-14.1,1.7c-3.5,0.6-12.1,1.3-12.1,1.3c-4.9-0.3-8.4-0.2-10.7-0.2c-5,0.1-19.7,2.6-26.4,4.4
				c-11.6,3-32.2,15.8-32.8,16c0,0-15.7,6.7-17.6,9.2c-2,2.8-10.6,23.8-12.8,30.9c-1.6,5.2-7.6,19.5-7.4,21.1c0,0.2,4.5-5.8,5.3-5.3
				c0.5,0.3-3.9,18.6-4.8,23.2c-2.1,10.8-3.5,14.4-6.6,25c-1.9,6.7-7.4,19.9-7.4,19.9s-2.1-5.3-3.3-8.7
				c-3.7-10.2-10.9-17.4-16.5-21.3c-9.5-6.6-17.8-3.3-24.7,5.2c-1.7,2.1-11.8,16.2-13.4,22.2c-2.2,8.3-1.1,13.3,0.3,21.4
				c2.1,11.7,18.7,30.1,33.4,38.3c3,1.7,14.4,7.1,15.8,10.5c1.2,2.9,1.9,5.9,2,9c0,2.1-4.3,49.9-11,74.8c-1.7,6.2-2.7,12.6-4.5,18.8
				c1.9,2.6,3.8,5.4,5.4,8.7c7.6,15.3,11,12.6,15,4.7s10-5,21.9,12c12,16.9,20.3,13.3,26.2,13.3s22.6,8.7,28.2,20.6
				c1.6,3.4,6.6,7.3,12.8,11c-1.5-8.8-3.2-17.8-3.3-19.8c-1.4-17.5-3.2-26.6-2.9-44.3c0.2-7.4,1.6-27,2.1-26.8
				c3.5,1.4,11.1,5.8,14.6,7.2c7,2.9,42.8,10.3,56.7-1.4c9.6-8.1,22.3-22.1,22.3-22.1s43.2-58.8,45.5-66.9
				c2.3-7.9,4.1-22.1,4.3-30.3c0.2-5.6,0.5-35.4,2.6-43.7c2.2-8.6,9-35.1,9.4-40.9C359.7,201.5,357.2,190.4,354.9,181.4z"/>
		</g>
		<path class="st7" d="M108.5,322.2c0.2,0,0.5-0.1,0.7-0.1"/>
		<path class="st7" d="M170.5,403.8c-0.3,1.3-0.8,2.4-1,3.6"/>
		<path class="st7" d="M120.1,262.8c0,0.7,0.6,2.2,1.7,1.5c0.8-0.5,1.3-3.6,1.4-4.5c0.2-1.1,9.5-16.9,14.4-31.9
			c3-9.2,7.3-37.2,10.3-44.7c3.8-9.7,12-23.9,18.7-31.6c15.8-18.2,37.4-23.2,60.7-25.8c8.3-0.9,21.4-3.2,29.3-5.8
			c2.8-0.9,12.2-7.2,12.8-7.7c0.6-0.4-11.5,1-12.2,1.1c-7.4,1.1-10.3,1.1-14.1,0.9c-16.9-0.8-26.1,0.1-43.3,6.5
			c-6.6,2.4-22.1,11.3-23.3,12.1c-5.5,3.5-22.3,12.4-23.8,13.6c-0.7,0.6-17.1,40.8-18.6,45.9c-0.5,1.6-2.1,4.3-1.6,6
			c0.1,0.5,6.9-8.3,6.8-7.6c-0.7,5.2-2.6,13.9-4.1,19c-2.9,9.9-7.8,31.2-15.1,48.7"/>
		<path class="st7" d="M105.4,286.6c0.8-6.6,0.1-14.6-1.7-21c-0.2-0.6-2.3-9.2-2.4-9.1c-1.7,1.4-6.9,6.2-6.9,6.2s-7.1-1.6-5.8-0.5
			c3.1,2.8,6.3,4.9,9.5,13.3c1.2,3.2,4.3,14.2,4.8,17.5C103.1,293.7,105.2,288.5,105.4,286.6z"/>
		<path class="st7" d="M80.5,304.1c-1.2-3.1-6.9-13.1-8-16.3c-4.9-13.7-3.5-24,0.1-34.3s12.7-22.6,23.1-26.3
			c2.3-0.9-8.5,0.2-9.3,0.6c-5.1,2.6-9,6.6-12.9,10.7c-8.1,8.4-13.2,26-11.3,37.7c0.6,3.9,3.9,9.5,5.5,12.9"/>
		<path class="st7" d="M289.3,331.3c-3,3.5-10.4,2.4-12.1,2.1c-5.3-0.8-6.5-2.8-11.1-5.2c-1.1-0.6-4.6-2.7-4.2-4.3
			c0.1-0.4,4.3,0.1,10-4.1c4-3,4.9-0.8,7.7-0.9c3.9-0.2,7.1,1.7,10.8,1.8c3.1,0.1,6.1-2.2,9.2-2.1c0.3,0,2.9-0.1,2.8,0.3
			c-0.1,0.8-12,10.6-12.6,11.5"/>
		<path class="st7" d="M307.1,354.3c0.2,1-10.1,13-12.7,15.5c-11.6,11.5-25.2,20-41.7,12.8c-9.1-4-12.8-6.7-22.6-17.9
			c-5.2-5.9-9.4-11.4-8.8-11.1c4.2,2.1,58.7,5.7,63.9,5.6c2.7-0.1,6.4,0,9-0.9"/>
		<path class="st7" d="M299.3,265.3c-4.6-3.5-4.5-19-3.3-24.4c2.7-11.7,11-21.8,12.3-21.9c1.9-0.2,27.4-7.4,27.3-4.7
			c-0.1,1.4-2.8,4.2-10.2,12.4c-7.4,8.2-8,14.8-9.7,19.8"/>
		<path class="st7" d="M230.6,226.4c0.1-1.8-5.4-10.5-10.7-17.1c-7.4-9.4-16.1-16.6-16.1-16.9c0-0.4,54.1,17.6,54.9,20.5
			c1.8,6.3,0,18.7-2.7,24.4c-2.8,5.7-7.4,15.5-15.4,21.7c-0.1,0.1-0.5-22.4-4.5-27"/>
		<path class="st6" d="M246,114.7l-0.1-0.1h-0.1l0.1,0.1l0,0"/>
	</g>
	<g id="göz" vectornator:layerName="g‚àö‚àÇz">
		<path class="st8" d="M243.9,251.8c0.4,3.7-1.9,7.4-4.6,9.7c-6,5-12.8,5.1-20.2,5.3c-1.9,0-3.7,0.2-5.6,0.2c-2.5-0.1-5-0.2-7.4-0.5
			c-3.6-0.5-7.3-1.4-10.7-2.7c-4.3-1.6-11.2-3.5-12-8.9c-0.6-4.6,2.4-9.6,4.6-13.5c3.2-5.6,5.2-12.9,12-15.3c1.9-0.7,4-1.1,6.1-1.3
			s4.4-0.3,6.5-0.1c7.5,0.5,16.9,2.4,23.4,6.4c2.1,1.3,3.5,3,4.1,5.3c0.1,0.4,0.5,1.5,0.1,1.7"/>
		<path class="st8" d="M318.5,275.7c-2.1,0.8-5-0.8-6.9-1.5c-5.5-2-12.4-6.3-12.9-12.8c-0.2-2.9,1.8-6.1,3.2-8.4
			c4.2-7,9-12.6,17.3-14.7c4-1,8-1.1,12,0c2.5,0.7,5.2,1.7,7.3,3.2c2,1.3,4.1,3,5.5,5.1c2.9,4.3,1.8,9-0.5,13.2
			c-3,5.6-7.1,9.2-12.8,11.9c-2,0.9-4.1,1.9-6.3,2.3"/>
		<path class="st9" d="M205.1,237.9c0.4-0.7,7.9-1.3,8.9-1.3c8,0.1,16.6,3.5,22.5,8.7c2,1.7,3.9,3.7,5.2,5.9
			c0.3,0.5,1.6,3.6,1.8,2.8c0.3-0.8,0.2-2.1,0.3-2.9c0.2-4.8-1.5-9.6-4.1-13.6c-2.5-3.9-5.9-7.4-10.1-9.5
			c-9.2-4.8-22.7-3.1-30.1,4.2"/>
		<path class="st9" d="M325,251.1c0.3-1,2.4-1.9,3.3-2.4c3.7-1.8,9-1.3,11.9,1.9c1.9,2.1,2,4.9,1.7,7.5c-0.1,0.6-0.6,3-0.3,3.4
			c0.2,0.4,1.8-1.8,1.9-2.1c1.9-4.8,2.6-14-1.3-18c-2.3-2.3-5.8-2.2-8.8-2.1c-5.2,0.3-10.7,2.2-13.4,7"/>
	</g>
	<g id="Layer_1_1_" vectornator:layerName="Layer 1">
		<g>
			<path d="M377.1,234.1c-3.1-3.1-6.7-4.9-13.3-6.8c-2.5-0.7-4.7-1.4-4.7-1.4c-0.4-0.4,0.7-3.1,1.7-3.9c1.3-1.3,1.5-3,0.6-5.6
				c-0.3-0.9-0.6-2.9-0.6-4.8c0-5.9-0.8-13.9-2-21.3l-1.2-7.3l1.3-3.6c1.9-5.6,3.9-13.2,6.3-24c3.2-14.8,3.1-16.5-1.9-30.2
				c-1.3-3.6-3.4-8.9-4.6-11.7c-1.3-2.9-2.3-5.3-2.3-5.5c0-0.1,2.3-1.5,5.1-2.9c9.2-4.8,14.1-8.5,15.8-11.7
				c1.6-3.2,1.3-7.2-1.2-12.3c-3.1-6.3-7.7-11.7-17-20c-6.7-6-13.9-11.3-14.5-10.7c-0.2,0.2,10,10.3,12,11.8
				c1.8,1.4,11.1,11.6,13.3,14.6c4.3,5.8,6.3,11.2,5.2,14.5c-0.9,2.7-6.1,6.3-17.7,12.2c-17.2,8.8-24.7,10-41.7,7.1
				c-6.3-1.1-9.1-1.5-9.7-1.2c-0.6,0.2-0.7,1.5-0.1,1.8c0.7,0.4,10.5,2.4,16,3.2c10,1.4,17.3,0.4,27.3-3.5c2.3-0.9,4.5-1.8,4.8-1.9
				c0.5-0.2,0.7,0.1,1.1,1.8c0.3,1.1,1.8,5.7,3.4,10.2c5.6,15.6,6.1,17.4,5.7,22.3c-0.4,5.2-6.3,37.1-6.9,37.1c-0.1,0-0.7-1.8-1.3-4
				c-1.3-4.7-7.2-22.3-9.6-28.4c-1.6-4-3.6-8.8-6.7-15.4c-0.7-1.6-1.3-2.9-1.1-2.9c0.1,0,3.1,1.5,6.7,3.4c6.3,3.3,7.2,3.7,7.2,3.1
				c0-0.4-6.1-4.7-10.4-7.3c-10.7-6.4-24.4-12.1-25.8-10.7c-0.7,0.7,0.1,1.3,3.7,2.9c1.8,0.8,6,2.7,9.3,4.2c6,2.7,6.1,2.8,6.3,4.1
				c0.4,2,1.6,5.3,5.3,14.5c4,9.8,11.1,30.6,12.7,37.3c2.3,9.6,3.9,21.1,3.7,27l-0.1,3.4l-4.7-2.8c-6.8-4-7.9-4.4-12.5-4.1
				c-11.6,0.7-25.1,3-26.7,4.6c-0.3,0.4-1.6,2.1-2.9,4l-2.3,3.4l0.3-1.9c0.1-1.3,0.1-2-0.2-2.2c-0.9-0.5-1.5,0.6-1.9,3.5
				c-0.3,1.6-0.6,3.5-0.8,4.1c-0.2,0.7-0.2,1.5-0.1,1.8c0.3,0.7,0.6,0.6,7.2-0.7c17.8-3.7,32.7-4.5,40.2-2.2
				c3.8,1.2,3.9,1.3,3.4,4.1c-0.4,2.2-0.5,2.3-1.5,2.1c-1.4-0.3-7.2-1.2-11-1.8c-5.7-0.9-14.6-0.6-23.1,0.5
				c-12.3,1.7-14.4,2.1-16.9,3.2c-2.9,1.3-5.5,4-8.5,8.5c-2.8,4.3-2.6,4.1-3.8,3c-0.6-0.6-2.5-1.5-4.6-2.2c-3.1-1-4-1.2-7.4-1.2
				s-4.2,0.1-6.3,1c-1.3,0.6-2.4,1-2.4,0.9c0,0-0.3-1-0.5-2.1c-1.6-6.6-7.4-14.5-12.9-17.4c-5.9-3.1-15.6-5.3-28.7-6.6
				c-13.3-1.3-34.8-2-43.4-1.4c-16.5,1.3-27.8,6.7-33.9,16.2c-1.3,2.1-1.8,2.5-2.4,2.3c-0.4-0.1-4.1-0.7-8-1.4
				c-4-0.7-7.4-1.3-7.6-1.5c-0.2-0.1,0.3-3.2,1.2-6.7c0.8-3.6,1.9-8.6,2.5-11.1c0.5-2.6,1.6-7.3,2.5-10.5c1.6-6.4,1.8-8.3,0.4-8.5
				c-0.6-0.1-1.1,0.3-1.9,1.2c-0.6,0.8-1.3,1.8-1.7,2.2c-0.4,0.5,0-0.9,1-3.8c3.9-11.1,7.2-19.2,13.8-34.1l3.6-8.2l2.6-0.6
				c3.6-0.9,7.8-3,12.7-6.4c14.7-10.1,27.3-16.3,39.7-19.5c9-2.3,11.5-2.5,24.6-2.6c11.7,0,12.2,0,13.2-0.8c0.6-0.4,1-1.1,1-1.5
				c0-0.6-0.3-0.7-2.8-0.6c-1.5,0-5.8-0.1-9.7-0.4c-15.6-1-30.3,1.8-45.3,8.7c-7,3.2-11.7,5.9-19.9,11.4
				c-10.5,7.1-14.3,8.6-20.9,8.6c-8,0-14.9-3.2-19.9-9.2c-1.2-1.4-4.7-6.4-7.8-11.1c-7.3-10.9-10.7-15.5-15.1-20.1
				c-3.6-3.8-6.6-6.3-9.4-7.9c-2.2-1.3-1.7-1.2,2.9,0.6c5.4,2.1,10.4,4.7,18.1,9.5c10.2,6.3,21.4,11.8,28.6,14.1
				c3.1,1,6.3,1.3,5.8,0.6c-0.1-0.2-0.6-0.4-1.2-0.4c-3.2,0-20.3-8.4-29-14.3c-13-8.5-20.6-12.2-31.7-14.9c-0.9-0.2-1.5-0.5-1.5-0.6
				c0.3-0.3,11.2,0.6,13.8,1.2c5.3,1.1,10.4,3.1,25,9.9c2.9,1.3,6.5,2.9,8,3.4c3.7,1.2,11.7,2.3,15,2l2.6-0.2l2.9,2.2
				c13.3,10,25.8,12.8,40.6,9.1c6.2-1.6,15.5-6,20-9.5c1.3-1,1.5-1.1,2.8-0.7c1.8,0.5,8.2,0.5,12.6,0c9.2-1,12.9-2.1,22.6-6.4
				c7.7-3.5,8.2-3.6,9.5-2.4c1.5,1.4,3.7,4.9,6.5,10.1c1.4,2.7,2.8,5.1,3.1,5.4c1.1,1.1,1.5,0.1,2.6-5.1c0.6-2.8,1.3-5.9,1.8-6.8
				c0.9-2.1,0.4-2.7-1-1.1c-1.1,1.3-3.2,5.3-3.2,6.1s-0.7,0.5-1-0.4c-0.4-1.5-4.4-8.1-5.7-9.6c-3.1-3.6-5-3.5-14.4,1
				c-5.6,2.6-10.4,4.5-14,5.4s-12.3,2.2-16.9,2.5l-3,0.2l2.6-2.2c3.8-3.2,8.7-8.5,10.6-11.3l1.7-2.4l4.7-1.5c15-5,26.1-4.5,35.6,1.4
				c4.5,2.8,8.5,6.7,10.7,10.3c2,3.3,4.1,8.8,4.7,12.4c0.5,2.9,1.1,4.1,1.9,4.1c1.7,0,2-4.7,0.6-10.1c-2.1-8.3-8-17.4-16.8-26
				c-6.6-6.4-9.8-8.5-20.3-13.8c-6.2-3.1-11.6-5.3-15.3-6.1c-4.5-1-4.8-0.5-0.7,1.1c3.1,1.2,13.2,6.1,17.9,8.8
				c5.2,2.9,9.5,5.8,13.1,9c3.1,2.6,7.9,7.8,8.7,9.1c0.3,0.6,0.3,0.6-0.6,0c-7.4-5.4-13.9-7.2-23.6-6.9c-8.1,0.3-13.1,1.6-27.1,6.8
				c-11.4,4.3-15.6,5.1-24.9,5.2c-6.5,0-7.2-0.1-11.7-1.2c-6.4-1.6-14.6-4.3-16.9-5.6c-2.3-1.3-2.6-0.7-0.6,1.1
				c2.8,2.4,10.9,5.7,19.8,8c3.7,1,4.5,1,10.9,1c8,0,11.5-0.6,19.7-3.4c2.8-0.9,5.1-1.6,5.1-1.5c0.2,0.2-7.2,7.2-10.3,9.6
				c-7.3,5.8-15,9.8-23.6,12.1c-3.4,0.9-4.3,1-10.4,1c-6.2,0-6.9-0.1-10-1c-6.6-2-11.6-4.9-18.8-10.7c-9.8-7.9-19.6-18.7-26.2-28.9
				c-1.6-2.5-5.5-9.4-5.5-9.8c0-0.1,0.9,1,1.9,2.4c7.7,10.3,18.1,20.4,26.2,25.4c8.7,5.4,22.4,11.6,27.5,12.6
				c2.3,0.4,1.6-0.3-1.1-1.2c-5.1-1.6-22-10.7-27.3-14.6c-11.8-8.8-25.1-24.7-32-38.4c-1.3-2.5-2.3-4.8-2.3-5s0.9,0.5,2,1.5
				c4.6,4.2,16.2,10.7,22.6,12.7c7.6,2.4,18.9,3.6,30,3.3c12.5-0.4,20-1.8,39-6.9c17.7-4.9,23-5.8,32.7-5.8c8.6,0,12.8,0.7,22,3.9
				c3.5,1.2,8.8,3.1,11.7,4c10.4,3.6,19.8,5.1,30.4,4.7c3.6-0.1,7.2-0.3,7.9-0.4c1.7-0.3,1.8-1-0.7,7.5
				c-3.1,10.9-8.5,24.9-14.2,36.7c-3.2,6.7-3.6,8.4-2.2,8.4c0.8,0,2.5-2.6,5.8-9.2c5.2-10.3,11.5-26.6,14.9-38.5
				c1.3-4.8,1.4-6.5,0.3-7.4c-0.7-0.7-1.5-0.7-12-0.7c-10.7,0-11.5-0.1-16.2-1c-6.2-1.2-10.2-2.3-16.9-4.8l-5.2-1.9l1.9-0.1
				c13.7-0.6,24.5-2.4,39.4-6.4c10.3-2.8,13.1-3.3,15.1-2.7c1.3,0.4,1.5,0.6,2,2.3c0.8,2.8,0.6,8.3-0.4,11.9c-0.1,0.4,0,0.7,0.2,0.7
				s0.7-1.1,1.2-2.5c0.7-2,0.9-3.3,0.9-6.6c0-9.4-2.1-9.9-21.4-4.9c-16.2,4.1-27.4,5.8-39.3,5.8c-5.4,0-7.3-0.1-9.9-0.7
				c-14.2-3.3-26.1-2.2-49.2,4.4c-6,1.8-16.1,4.2-20.1,5c-2.5,0.5-2.9,0.5-2.9,0c0-0.7-1.5-3.6-4.9-9.5c-1.7-2.8-2.9-5.2-2.8-5.3
				c0.1-0.1,2.2-0.6,4.7-1.1c12.6-2.6,19.1-7.2,24.7-17.4c0.9-1.6,1.7-2.9,1.9-2.9s2.8,0.9,5.7,2c15.5,6,31,8.1,58.1,8.1
				c19.2,0,33.6-1.6,45.6-4.9c4.7-1.3,6.7-1.3,8.9-0.3c2.3,1.1,6.4,5.1,7.4,7.1c1.3,2.5,1.7,5.5,1.4,10.1
				c-0.4,6.9-1.8,11.1-7.7,23.6c-3.7,7.8-9.8,19.5-12.6,24.2c-2.5,4.2-5,7.7-8.6,12.1c-1.9,2.3-2.9,3.8-2.7,4
				c1.5,1.5,7.6-4.5,13.3-13.1c3.9-6,12.5-22.2,16.4-31l1.1-2.5l5,4.4c9,7.9,11.9,11.8,12.2,16.7c0.1,2,0,2.7-0.8,4.4
				c-2,4.1-9.1,9.2-17.6,12.7c-3.8,1.6-3.7,1.5-3.4,1.8c0.8,0.8,13.3-4.9,17.4-8c2.8-2.1,5-4.8,5.8-7.1c1.2-3.5,0.3-8.2-2.3-12.3
				c-2.4-3.6-9.1-10.2-14.4-14l-1-0.7l1-2.6c2.2-5.8,3.2-13.7,2.5-18.8c-0.7-4.2-1.8-6.4-5.2-9.6c-6.1-6-8.7-6.6-17.7-4.4
				c-12.3,3.1-32.3,5-48,4.6l-5.8-0.1l-5.3-2.5c-2.9-1.4-6.2-2.9-7.4-3.4c-29-12-44.9-18.4-49.1-19.4c-2.8-0.8-10.3-1.8-11-1.6
				c-0.1,0-1.1,0.1-2.2,0.2c-6.5,0.4-16.2,2.2-31.7,5.8c-13.6,3.2-20.8,4.6-26.4,5c-5.5,0.4-10.4,0-12.8-1c-0.9-0.4-1.9-0.7-2.2-0.5
				c-0.7,0.2-1.1,1.7-0.8,2.7c0.1,0.4,0,1.6-0.2,2.7c-0.4,2.5,0.1,6.4,1.6,11.1l1.1,3.5l-4.5-0.4c-6.7-0.4-19.7-1.7-22.5-2.3
				c-2-0.4-2.7-0.7-3.5-1.7c-0.5-0.6-1.1-1-1.3-0.9c-0.4,0.3-0.9,3.1-0.8,4.7c0,0.7,0.4,2.8,0.8,4.5l0.7,3.2l-1.8,5.4
				c-3,8.8-3.2,10.2-3.2,19c0,5.8,0.1,8.1,0.6,9.6l0.6,2L82,73.5C78.5,75.3,65.5,85,57.7,91.7c-4.2,3.6-8.4,8.1-8.2,8.9
				c0.1,0.4,0.8,0.6,2.2,0.8c3,0.4,7.8,1.5,8,1.9c0.1,0.1-0.5,1.3-1.3,2.4c-2.7,4.1-9,15.1-12,21c-7.4,14.7-9.9,22.5-13.2,40.6
				c-2.5,13.7-4.1,30.1-3,31.2c0.7,0.7,1.3-0.4,3.7-7c1.2-3.1,2.2-6,2.4-6.3c0.2-0.4,0.4,0.7,0.6,3.2c1,16.3,8,40.8,19.3,67.3
				l2.6,6.1l-0.2,3c-0.4,5.6,1.2,13.3,4.4,20.1c1.4,3,1.5,3.3,1,4.1c-1.2,1.9-2.2,5.3-2.2,7.7c-0.1,3,0.9,4.8,2.9,5.8
				c1.8,0.9,5.2,0.6,7.6-0.6l1.8-0.8l2.2,2.3c1.2,1.3,2.1,2.6,2.1,2.9s-0.3,1.6-0.5,2.8c-1.4,7,4.1,10.3,10.5,6.3l1.4-0.9l1.7,1.7
				c1.8,1.9,1.9,2.1,2.2,6c0.4,6.3,4.2,10.2,8.3,8.5c0.7-0.3,1.4-0.5,1.4-0.5c0,0.1,1.8,1.9,4,4.2l3.9,4.1l-0.3,6.6
				c-0.4,8.8-2.3,25-3.9,34.5c-2.4,14.2-5.8,29-10.8,47.3c0.9,1.1,1.8,2.2,2.7,3.4c0.8-2.9,1.6-5.8,2.3-8.4
				c8-29.8,12.5-57.3,13-78.2c0.2-8.5-0.2-15.7-0.9-17.5c-0.1-0.3,0.1-0.5,0.5-0.5c1.6,0,5.7-3.5,7.6-6.3c0.6-0.9,0.6-0.9,0.8,1.3
				c0.1,1.2,0.5,5.9,0.9,10.4c0.6,9,1,10.6,3.4,14.1c6.9,10.2,26.1,28,46.7,43.5c10.4,7.8,20.5,14.9,28.6,19.9c0,0-0.1,0.7-0.4,1.5
				c-1,2.9-1.5,10.9-1.5,23.8c0,23.1,1.7,45.1,4.7,63.7c1.3,0.9,2.7,1.8,4.2,2.6c-3.8-24.2-5.3-47.4-5-75c0.1-8,0.3-14.7,0.4-14.8
				c0.1-0.1,1.7,0.7,3.5,1.8c11.5,6.9,15.7,8.6,25.1,10.1c9.5,1.5,16.6,1.9,22.9,1.4c9-0.7,13-2.2,18.2-6.5c8.4-7,25-23.5,31.5-31.4
				c3.4-4.1,18.4-24.9,23.4-32.4c11.7-17.7,17.1-28.2,18.8-36.3c0.4-2,0.9-6.4,1.2-10l0.4-6.4l2.2-0.4c2.6-0.4,6.2-2.2,7.9-3.7
				c5.3-4.9,10.3-15,19.5-39.7C383.4,244.4,383.1,240.2,377.1,234.1z M358.4,228.6c0.1,0,1.3,0.3,2.5,0.6c3.5,0.9,8,2.4,9.9,3.4
				c2,1,5.5,3.7,5.5,4.3c0,0.2-0.1,0.3-0.4,0.1c-1-0.6-14.8-2.4-18.7-2.4c-0.4,0-0.7-0.2-0.7-0.4
				C356.7,233.4,358.2,228.6,358.4,228.6z M153.1,228.4c2.4-3.9,4.8-6.5,8-8.7c6-4.1,13.9-6.5,23.9-7.2c3.6-0.3,11.4-0.2,22,0.1
				c21.5,0.7,34.4,2.3,43.5,5.5c2.3,0.8,5,2,6,2.6c4.4,2.8,8.7,9,10.8,15.6l1.2,3.5l-3.4,6.7c-3.9,7.9-10.5,18.8-17.4,28.9
				c-8.5,12.4-12.7,16.5-18.7,18.5c-2.9,0.9-3.7,1-8.6,1c-3,0-8.8-0.3-12.8-0.6c-4.1-0.4-9.9-0.8-13-1s-6.8-0.6-8.3-1
				c-3.5-0.7-9-2.3-10-2.9c-5.4-3-7.7-4.4-9.1-5.8c-3.4-3.3-8.1-14.5-11.4-26.4c-2.6-9.6-4.4-18.2-4.5-21.8l-0.2-3.7L153.1,228.4z
				 M108,107.6c0.1,0,1.4,1.5,2.8,3.4c2.5,3.3,9.4,13.5,9.4,13.9c0,0.1-1.2-0.3-2.7-0.9c-1.8-0.7-4.5-1.3-8.5-1.9
				c-13.3-1.8-17.1-2.7-22.5-5.2c-3.4-1.5-6.2-3.2-10-6c-2.6-2-3-2.5-1.2-1.8c5,1.9,15.1,3.2,19.5,2.6c3.7-0.5,7.8-1.7,10.5-2.9
				C106.6,108.1,107.8,107.6,108,107.6z M119.8,14.4c0.3,0.1,2.9,0.2,5.8,0.3c8.2,0.3,14.4-0.6,32.2-4.8c17.3-4.1,28.8-6.1,34.5-6.3
				c1.3,0,3.6,0.1,5.2,0.4c5.8,0.8,8.2,1.7,37.6,13.7c9,3.7,17.3,7.2,18.4,7.7l2,1l-3.7-0.2c-13.1-0.7-21.8-2.6-38-8.4
				c-4.4-1.6-5.1-1.3-7.3,2.5c-4,7-7.1,10.5-11.2,12.8l-1.9,1.1l-1.2-1.1c-3.5-3.1-10.2-6.7-15.7-8.6c-4.9-1.6-9.6-2.3-15.3-2.3
				c-5.8,0-9.1,0.6-17.7,2.9c-9.2,2.5-15.3,3.7-20.6,4l-2,0.1l-0.7-3.5C119.1,21.1,119,14.2,119.8,14.4z M89.9,28.4
				c4.2,2.2,20.1,4.7,29.6,4.7c6.4,0,14.9-1.5,24.7-4.2c3.2-0.9,6.9-1.9,8.1-2.1c5.7-1.1,11.8-1.2,18.1-0.1c4,0.7,8.8,2.3,12.7,4.3
				c4.4,2.2,7.5,4.1,7.1,4.4c-0.5,0.5-3.1,1.2-8.1,2.3c-4.1,0.9-5,1.2-5.7,2s-0.9,1.3-0.7,2.3c0.3,2.2,5.1,9.4,8.9,13.3
				c1.7,1.8,1.8,1.9,1,2.1c-5.5,1.3-23.4,1.6-31.4,0.5c-9.4-1.3-15.5-3.3-23.4-7.7c-8.5-4.7-13-8.1-14.4-10.8
				c-0.7-1.3-1.7-1.7-1.2-0.5c0.1,0.3,0,1.1-0.2,1.9c-1.2,3.5,2.2,13.9,8.6,26.7c1.8,3.5,2,4.4,1.4,3.9c-3.9-2.8-9-4.7-13.7-5
				c-3.1-0.2-3.3-0.3-4.6-1.5c-3.5-3.4-9.8-12.1-11.7-16.5c-1.2-2.5-3.9-11.1-3.6-11.3c0.1-0.1,0.9,1.1,1.9,2.6
				c1.8,2.9,8.2,10.2,12.2,13.8c4.1,3.8,9.3,7.3,9.9,6.7c0.1-0.1-0.2-0.6-0.9-1c-3.6-2.6-11.7-11-15.2-15.7c-1.1-1.5-3-4.3-4.3-6.3
				s-3.2-5-4.1-6.4C89.1,28.1,89.1,28,89.9,28.4z M84.9,57.9c0.1-3.9,0.4-8,0.8-9.7c0.7-3.2,2.1-8.8,2.3-8.8c0.1,0,0.6,1.5,1.1,3.2
				c2.2,7.3,6.3,14.1,12.1,19.9l3.5,3.6l-2,0.2c-3.3,0.4-9.4,1.9-12.8,3.3L86.6,71l-0.4-1C85,66.6,84.7,64.6,84.9,57.9z M59,99.9
				c-1.6-0.4-2.9-0.8-2.9-0.9s3.9-2,8.6-4.3c4.7-2.2,8.7-4.2,8.8-4.4c0.4-0.6-2.8,0.1-6.7,1.6c-2.1,0.7-6.2,2.6-9.1,4
				c-2.9,1.4-5.3,2.6-5.3,2.5c0,0,3.5-2.6,7.7-5.8c18.1-13.5,24.7-17.5,33.6-20.4c6.3-2.1,9.6-2.6,16.1-2.5c4.4,0.1,5.9,0.3,7.8,1
				c3.6,1.2,7.8,3.3,9.6,4.8c0.9,0.7,3.1,3.3,4.8,5.6c5.4,7.3,11.3,13.7,19,20.6c1.1,1,1.8,1.8,1.5,1.8c-1.5,0-10.9-2-13.4-2.8
				c-1.7-0.5-6.2-2.5-10.1-4.3c-14.3-6.8-18.8-8.6-25.4-9.9c-4.8-1-17.7-1-21.8,0c-3.9,0.9-6.3,2.9-3.6,2.9c2.9,0,14.1,4.5,18.4,7.5
				c2.6,1.8,9.8,8.3,9.8,8.8c0,0.1-1.6,0.9-3.6,1.7c-3.4,1.4-3.9,1.5-8.5,1.6c-8.3,0.3-14-1-26.4-6.1C64.6,101.6,60.6,100.2,59,99.9
				z M60.3,256l-1-2.2c-3.5-7.9-9.4-23.8-12.3-33.4c-3.9-13-5.7-21.3-7-31.8c-1.1-9.3-1-10.9,1.2-16.9c2-5.6,2-5.3,1.4-5.3
				c-0.5,0-5.7,10.9-8.3,17.6c-1.2,3-2.2,5.4-2.3,5.4c-0.4-0.4,4.3-25.3,6.3-32.8c2.3-9.3,6-19.1,10.9-29c2-3.9,12.9-23.8,13.1-23.8
				c0,0,0.6,0.3,1.3,0.5c0.7,0.3,4,2.7,7.2,5.3c13.6,10.9,18.6,13,38,15.6c7.8,1.1,13,2.4,14,3.7c0.4,0.4,1.7,2.2,2.9,3.8
				c6,8.2,13.5,12.5,22.3,13.1c1.9,0.1,3.4,0.4,3.4,0.6s-0.5,1.3-1.2,2.6c-2.1,4.1-9.2,20.5-11.6,26.9c-3.3,8.6-7.7,21.6-7.7,22.8
				c0,1,0.9,1.6,1.8,1c0.3-0.2,1.5-1.6,2.6-3.1c1.1-1.5,1.9-2.4,1.8-2c-0.6,1.8-2.9,11.1-4.9,20c-1.2,5.3-2.2,9.8-2.4,9.9
				c-0.1,0.3-1.7,0.2-5.1-0.3c-12.8-1.9-31.9-2.7-36.6-1.5c-4.3,1.1-9.5,4.6-12.1,8.3c-0.8,1.1-2.5,3.2-3.8,4.7
				c-4.1,4.7-8.5,12-11.1,18.3L60.3,256z M128.4,230.4c0,0.3-0.7,2.8-1.5,5.6s-1.8,6.5-2.3,8.2s-1.6,5-2.5,7.4l-1.7,4.2l-1.5-4.4
				c-2-5.8-4.2-10.4-6.4-13.4c-2.2-3.2-7.3-8.2-10.3-10.2l-2.3-1.5l1.5,0.2c0.8,0.1,5.1,0.6,9.5,1.2
				C125,229.3,128.4,229.8,128.4,230.4z M67.2,299.8c-1.2,0-2.2-1.3-2.2-2.9c0-1.7,1.2-5.5,1.6-5.1c0.1,0.2,1.3,1.7,2.6,3.4
				c1.3,1.7,2.2,3.2,2.2,3.2C71.1,298.7,67.6,299.8,67.2,299.8z M83,314.4c-1.6,0-2.7-1.2-2.7-3.1c0-1.5,0.3-3,0.7-3
				c0.1,0,1.4,1,2.8,2.1c1.5,1.2,2.6,2.2,2.7,2.4C86.8,313.3,84.4,314.4,83,314.4z M99,328c-0.9-0.5-1.9-2.6-1.9-3.8
				c0-0.7,0.3-0.5,1.9,1.2c1,1.1,1.8,2.2,1.9,2.3C100.8,328.3,99.6,328.4,99,328z M103.8,324.7c-0.4,0.9-1,0.6-2.2-1.2
				c-0.9-1.2-0.8-1.3,1.2-0.3C104,323.9,104.1,324.1,103.8,324.7z M110.8,332.1l-0.1,3.1l-2.6-3.3c-1.4-1.8-2.6-3.5-2.6-3.7
				s0.4-1,0.8-1.7l0.8-1.4l1.6,0.5c1.4,0.4,1.6,0.6,1.9,1.9C110.8,328.3,110.8,330.4,110.8,332.1z M345.1,303.2
				c0,3.8-1,12.5-1.9,15.5c-3.1,11.1-17.7,34.6-38.9,62.6c-5,6.6-16.6,19.4-20.3,22.5c-1.5,1.3-4.3,3.6-6.1,5.3
				c-8.9,7.9-11.6,9.6-17.7,10.6c-4.5,0.8-12.9,0.9-17.9,0.3c-6.8-0.9-16.5-2.6-19.1-3.6c-7.7-2.8-29.8-16.9-49.5-31.6
				c-21.6-16.2-42.2-35.7-46.1-43.7c-0.9-1.8-1-2.9-1.7-10.8c-0.5-5.6-0.8-12.6-0.8-19.1c-0.1-8.9-0.1-10.2-0.6-10.4
				c-1.2-0.2-2.5,5.7-2.5,11.4c0,2.2-0.1,2.6-1.3,4.2c-1.5,2-4.1,4.5-5.4,5.2c-1.7,0.9-3.3,1.1-5.4,0.5c-2.5-0.6-7.2-3-10.3-5.1
				c-2.2-1.5-2.2-1.5-2-2.9c0.3-2.1,2.5-6.1,3.8-7c0.7-0.4,1.9-0.9,2.6-1c1.9-0.3,2.5-1,1.9-2c-0.6-1.1-3.1-1-5.5,0.2
				c-2.2,1.1-4.4,3.9-5.5,6.9c-0.4,1-0.9,1.9-1.1,1.9c-0.4,0-8.4-5.8-10-7.4l-1-1l1.2-1.2c0.6-0.6,1.8-1.5,2.6-1.9
				c1.3-0.6,1.7-0.6,3.4-0.2c1.8,0.4,2,0.4,2.6-0.3c1-1,0.6-1.8-1.1-2.5c-2.6-1.1-6.7,0-9.6,2.6l-1.4,1.3l-2-2
				c-4.1-4-9.8-11.4-9.8-12.8c0-1.1,6.3-7,9.1-8.5c2.5-1.4,3.3-1.6,7.2-1.7c0.7,0,0.6-2.2-0.3-2.6c-2-1-7.2,0.3-10.9,2.7
				c-1.1,0.7-3.2,2.5-4.7,4l-2.7,2.7l-0.9-2.1c-3.4-7.7-4.5-16.2-3-22.4c1.4-5.4,5.4-13.2,9.6-18.9c3.1-4.1,7.8-8.9,10.1-10.2
				c4.6-2.7,9.6-3.4,13.9-2.1c1.2,0.4,3.2,1.3,4.4,2.2c3.2,2.1,8.5,7.3,10.4,10.2c2.8,4.2,6.6,13.4,7.9,19.1c0.9,4,2.6,3.9,2.2-0.1
				c-0.1-1.4,0-2.4,0.3-3.2c1.6-3.1,3.9-9.5,6.7-17.6c2.7-7.9,3.1-9,3.8-9c0.9,0,14.2,2.2,15.1,2.4c0.4,0.1,0.7,0.9,0.8,3
				c0.3,3.5,1.3,8.5,3.6,17.5c3.7,14.6,8.3,26.4,12.4,31.5c1.7,2.2,3.4,3.4,8.7,6.1c6.4,3.3,13.5,4.9,26.3,5.8c3,0.2,7,0.6,8.9,0.7
				c5.8,0.6,16.8,0.4,20-0.2c7.2-1.5,12.4-5.5,19.4-15.6c10.3-14.6,19.4-30.2,22.8-39.2c0.9-2.2,1-2.3,3.1-3.3
				c4.5-2.1,10-1.6,16.1,1.4c2.4,1.2,3.1,1.6,2.9,2.1c-1.3,4.5-1.5,15.1-0.3,20.7c1.1,5.1,2.7,10.2,5.1,16.2
				c4.5,11.1,8.3,15.2,16.5,17.5c9.3,2.6,22.8,4.7,25.6,3.9c0.7-0.2,2.4-0.3,3.7-0.3l2.3,0.1v2.7H345.1z M346.8,260.7
				c-0.3,2.5-0.7,6.3-0.8,8.3l-0.3,3.7l-1-1.5c-0.9-1.3-1-2-1.2-5.5c-0.2-3.9-0.2-4.1,0.9-6.1c1-2,2.5-3.9,2.8-3.6
				C347.3,256,347.1,258.2,346.8,260.7z M333.8,229.1c-6.6,0.4-12.6,2.6-19.3,7.1c-5.1,3.4-10.9,8.9-13.7,13.1c-3,4.4-4,10.2-2.4,14
				c0.9,2.1,4,5.5,5.6,6.3c4.2,1.9,10.7-0.3,15.1-5.1c4.5-4.9,6.9-12.1,6-17.5l-0.3-1.9l2.1-0.2c4.2-0.4,11.5-0.7,13.9-0.4l2.5,0.3
				l0.1,6c0.1,5.7,0.1,6.1-0.8,7.9c-1.3,2.8-3.5,5.9-5.4,7.5c-3.5,3.1-11.6,6.9-17.8,8.4c-2,0.5-3.6,1-3.6,1.1
				c0,0.4,2.5,1.1,4.1,1.1c0.9,0,2.7-0.2,4-0.4l2.3-0.4l1.8,1.5c2.2,1.9,2.9,1.7,3.2-0.7c0.1-1,0.4-2,0.7-2.2c1-0.8,5.4-2,6.9-2
				c0.9,0,2.8,0.4,4.3,0.9l2.7,0.9v2.1c0,1.2-0.1,6.6-0.1,12.1l-0.1,10l-4.4,0.3c-5.7,0.3-10.5-0.3-22.6-3.1
				c-12-2.7-14.2-4.7-18.9-16.2c-1.9-4.7-3.8-10.5-5.3-16.2c-1-3.6-1-4.5-1-10.2c0-8.6,0.8-12.2,3.7-16.2c2.8-3.9,5.6-6.7,7.8-7.7
				c5.5-2.5,27.7-4.6,36.7-3.5c7,0.9,13,2,13,2.4s-2.3,8.8-2.5,9.1c0,0.1-1.5-1-3.2-2.5C343.5,230.1,339.8,228.7,333.8,229.1z
				 M375,260.3c-9.3,24.3-14.8,34-20.7,36.7c-1.1,0.5-2.8,1-3.7,1.2l-1.7,0.2l0.1-11.3c0.2-13.6,0.7-23,1.6-28.3
				c0.3-2.2,0.7-4.1,0.8-4.2c0.1-0.1,2.3-0.4,4.9-0.8c2.6-0.3,5.4-0.9,6.1-1.2l1.4-0.6l-3.9-0.5c-3.5-0.4-5.6-1.2-5.6-1.9
				c0-0.4,1.5-1.8,2.8-2.4c0.6-0.3,2.2-1.3,3.6-2.2c1.3-0.9,2.8-1.8,3.2-2c0.8-0.5,1-0.4-3.2-0.6c-2.6-0.1-5.3-1.5-5.5-2.8
				c-0.1-0.7,0-0.9,0.6-0.6c0.4,0.1,3.4,0.7,6.6,1.2c11.4,1.7,13.8,2,15.5,2.3l1.8,0.2l0.3,1.7C380.3,246.2,379.8,247.8,375,260.3z"
				/>
		</g>
		<path d="M205.2,216c-9,0.7-14,2.2-26.9,8.5c-13.4,6.5-17.4,8.2-19.3,8.2c-1.6,0-2.2,0.5-1.5,1.3c0.5,0.7,5.3,1.9,9.3,2.5
			c1.8,0.3,3.5,0.5,3.9,0.6c0.7,0.1,0.7,0.5,0.8,3.2c0.1,2.8,1,6.9,2.2,9.7c0.4,0.8-1.3,1.9-4.7,3c-1.8,0.6-2.5,1-2.5,1.4
			c0,0.5,0.9,0.7,5.9,1.1c3.2,0.3,5.9,0.6,6,0.7c0.3,0.3-1.6,1.6-4.5,3c-3.4,1.6-3.3,1.6-2.5,2.2c0.4,0.3,2.4,0.6,5,0.7
			c5.3,0.3,9.6,1,11.4,1.9c2,1,2.7,2.6,2.2,5.6c-0.7,4.2-0.2,4.1,4-0.3l3.2-3.4l2.5,0.6c3.6,0.9,10,1.7,13.7,1.7
			c6.2,0,15.3-1.1,15.3-1.8c0-0.1-3.7-0.2-8.3-0.1c-9.1,0.2-14-0.2-19.5-1.6c-3.3-0.8-10.8-3.5-10.5-3.8c0.1-0.1,1.5-0.4,3.2-0.7
			c12.8-2.3,21-14.5,17.1-25.8c-1.1-3.2-1.6-2.8,4.9-3.5c6.9-0.7,12.4,0.1,17.1,2.4c3.1,1.6,4.6,2.8,6.1,4.9c3,4.4,4.4,8.8,4.4,13.9
			c0,3.1,0.6,3.5,1.4,1c0.8-2.3,0.3-6.7-1.2-10.5l-1.3-3.2l1.7,0.2c2.1,0.3,6-0.6,8.4-1.9c2.6-1.4,4.8-3.9,4.7-5.3l-0.1-1l-5.5-0.2
			c-3-0.1-5.6-0.3-5.7-0.4c-0.1-0.1,1-0.8,2.6-1.5c4.4-2.1,8.5-5.1,7-5.1c-7.4,0-14.2-1.2-23.5-4.1c-6.7-2.1-13.4-3.6-17.5-3.9
			c-1.6-0.1-3.3-0.2-3.9-0.3C209.5,215.8,207.3,215.9,205.2,216"/>
		<path d="M94.9,247.1c0,0.1,1,2.4,2.2,5.1l2.3,5l-2.1,1.9c-2.2,2-4.2,2.9-6,2.5c-0.5-0.1-2-1-3.4-2s-2.6-1.7-2.8-1.6
			c-1.1,0.7,1,4.1,3.5,5.5c1.8,1.1,4.5,1.2,6.1,0.4c1-0.6,3.1-2.6,4.4-4.4l0.8-1l1.1,3.5c3.1,9.3,3.6,20.3,1.4,29
			c-0.5,1.9-0.8,3.7-0.7,3.9c0.3,0.9,1.9,0.5,2.6-0.6c3.6-5.1,3.5-22-0.1-32.1c-1.9-5.2-7.9-15.3-9.1-15.3
			C95,246.9,94.9,246.9,94.9,247.1"/>
		<path d="M292,273.4c0.3,3.7,2.1,11.4,4.1,16.8c0.9,2.5,2.9,6.3,6.2,12c2.8,4.8,4.9,8.8,4.9,9.3c0,1.2-1.9,3.7-6.1,8
			c-3.1,3.2-9.9,9.2-13.9,12.3c-1.6,1.3-1.8,1.9-0.3,1.9c2.2,0,16.7-12.3,20.7-17.5c3.3-4.4,3.3-4.6-2.4-14.3
			c-2.4-4.1-5-8.8-5.8-10.4c-1.6-3.5-4.7-12.3-5.9-17.1C292.2,269.7,291.7,269.4,292,273.4"/>
		<path d="M256.9,316.9c0,1,1.6,4.3,3.1,6.6c1.8,2.7,4.8,5.3,6.2,5.3c1.5,0,0.8-1.4-2-4c-1.6-1.4-3.8-3.8-4.9-5.4
			C257.2,316.5,256.9,316.2,256.9,316.9"/>
		<path d="M274.7,318c-2.1,0.6-4.3,2.3-4.3,3.3c0,0.7,0.3,1,1.4,1.2c2,0.5,3.9,0,5.2-1.3c1.3-1.3,2-1.3,4.9-0.3
			c1.9,0.7,2.1,0.7,2,0.1c-0.1-0.4-1-1.2-2.2-1.8C279.5,317.9,276.8,317.5,274.7,318"/>
		<path d="M307.8,352c-0.7,1.1-1.7,2.4-2.3,2.9c-0.9,0.7-1.1,0.8-1.6,0.4c-1.4-1-5.5-2.8-8.8-3.6c-3.1-0.9-4.3-1-11.6-1.2
			c-9.2-0.2-16.2,0.4-24.4,1.9c-9.8,1.9-14.8,2.5-22.2,2.5c-6.3,0.1-7.4,0-10.6-0.8c-1.9-0.5-4.2-1.1-5-1.5
			c-0.9-0.3-1.6-0.4-1.8-0.2c-1.1,1.1,11.2,8.4,20.4,12.2c4.9,2,10.5,3.6,15.6,4.5c4.5,0.8,16.2,0.9,21,0.2
			c14.7-2.1,29.3-9.2,32.8-16.1c0.8-1.6,0.9-3,0.1-3.2C309.3,350.1,308.5,350.9,307.8,352"/>
		<path d="M285.2,376.9c-3.7,2.5-7.7,4.8-11,6.1c-2.5,1-2.9,1.1-8,1.1c-4.8,0-5.8-0.1-9.1-1.1c-3.5-1-7.6-2.7-11.3-4.8
			c-1.2-0.7-1.8-0.9-2.1-0.6c-0.7,0.6-0.3,1.3,1.8,2.9c4.5,3.4,10.6,5.3,18.7,5.8c5.8,0.3,9.1-0.3,13.9-2.8
			c3.2-1.7,10.2-6.9,11.1-8.2C289.7,374.4,287.7,375.2,285.2,376.9"/>
		<path d="M193.9,177.8c-9.2,1.7-19.8,6-31,12.7c-5,3-6.2,4-5.6,4.6c0.3,0.3,1.6,0.2,5-0.5c8.8-1.8,15.9-2.6,24.4-2.6
			c9,0,9.1,0,24.3,3.5c11.3,2.6,14.5,3.6,25.2,7.7c5.7,2.2,20.1,8.9,25.6,12.1l2.2,1.2l0.7-0.9c0.9-1.1,1.2-3.8,1.1-9.3
			c-0.1-4-0.2-4.5-1.2-6.1c-1.4-2.3-3-3.6-7.7-6c-10.4-5.4-20.7-9-36.9-13.1C204,177.2,200,176.7,193.9,177.8"/>
		<path d="M268,201.3c-0.8,1-1.5,8.4-0.8,8.4c0.5,0,1.9-3.4,2.3-5.6c0.5-2.5,0.5-2.5-0.3-2.9C268.7,200.8,268.4,200.8,268,201.3"/>
	</g>
</g>
<image style="overflow:visible;enable-background:new    ;" width="29" height="29" xlink:href="3A18B1880C4644BF.png"  transform="matrix(0.3404 0 0 0.3404 191.6353 85.4925)">
</image>
</svg>
