<svg xmlns="http://www.w3.org/2000/svg" viewBox="0 0 236.4 236.1"><defs><style>.cls-1{fill-rule:evenodd;}</style></defs><g id="Layer_2" data-name="Layer 2"><g id="Layer_1-2" data-name="Layer 1"><g id="Layer_2-2" data-name="Layer 2"><g id="Layer_1-2-2" data-name="Layer 1-2"><path class="cls-1" d="M146.15,236.1c82.17-2.4,90.25-19.69,90.25-117.9C236.4,9.85,226.56,0,118.2,0S0,9.85,0,118.2c0,98.46,8.14,115.59,90.9,117.9a4.94,4.94,0,0,0,1-3.17c0-2.46-.09-27.73-.14-36.43-29.92,6.3-36.23-14-36.23-14-4.9-12-11.95-15.24-11.95-15.24-9.76-6.46.74-6.34.74-6.34,10.79.74,16.48,10.75,16.48,10.75C70.37,187.62,86,183,92.08,180.35c1-6.73,3.76-11.33,6.83-13.93-23.89-2.63-49-11.57-49-51.52A39.63,39.63,0,0,1,61,86.94C59.86,84.29,56.18,73.7,62,59.35c0,0,9-2.8,29.58,10.68a105.32,105.32,0,0,1,53.87,0C166,56.55,175,59.35,175,59.35c5.88,14.35,2.19,24.94,1.07,27.59a39.58,39.58,0,0,1,11.07,28c0,40-25.15,48.88-49.12,51.43,3.86,3.23,7.3,9.58,7.3,19.3,0,9.32-.06,25.8-.1,36.73,0,5.41,0,9.45,0,10.58a5.65,5.65,0,0,0,.92,3.14Z"/></g></g></g></g></svg>