<svg xmlns="http://www.w3.org/2000/svg" xmlns:xlink="http://www.w3.org/1999/xlink" viewBox="0 0 218.86 218.85"><defs><style>.cls-1{fill:url(#linear-gradient);}.cls-2{fill:url(#linear-gradient-3);}</style><linearGradient id="linear-gradient" x1="-523.47" y1="-901.29" x2="-523.05" y2="-901.29" gradientTransform="translate(-523677.83 123904.41) rotate(106.84) scale(516.45)" gradientUnits="userSpaceOnUse"><stop offset="0"/><stop offset="0.26"/><stop offset="0.66"/><stop offset="1"/></linearGradient><linearGradient id="linear-gradient-3" x1="-523.47" y1="-901.36" x2="-523.05" y2="-901.36" xlink:href="#linear-gradient"/></defs><g id="Layer_2" data-name="Layer 2"><g id="Layer_1-2" data-name="Layer 1"><g id="Layer_2-2" data-name="Layer 2"><g id="Layer_1-2-2" data-name="Layer 1-2"><path class="cls-1" d="M109.43,0C79.71,0,76,.12,64.31.66S44.71,3,37.75,5.75A53.73,53.73,0,0,0,18.36,18.38,53.52,53.52,0,0,0,5.75,37.75C3,44.71,1.19,52.66.66,64.31S0,79.7,0,109.43s.12,33.45.66,45.12S3,174.15,5.75,181.11a53.52,53.52,0,0,0,12.61,19.37,53.73,53.73,0,0,0,19.39,12.63c7,2.7,14.91,4.55,26.56,5.08s15.39.66,45.12.66,33.45-.13,45.12-.66,19.6-2.38,26.56-5.08a56,56,0,0,0,32-32c2.7-7,4.55-14.92,5.08-26.56s.66-15.39.66-45.12S218.74,76,218.2,64.3s-2.38-19.6-5.08-26.56A53.85,53.85,0,0,0,200.5,18.38,53.55,53.55,0,0,0,181.1,5.75c-7-2.71-14.92-4.56-26.57-5.09S139.15,0,109.43,0Zm0,19.72c29.22,0,32.68.11,44.22.64,10.69.48,16.46,2.27,20.32,3.76a33.93,33.93,0,0,1,12.58,8.19,33.9,33.9,0,0,1,8.19,12.57c1.5,3.85,3.28,9.65,3.77,20.32.52,11.54.63,15,.63,44.22s-.11,32.68-.63,44.22c-.49,10.67-2.27,16.47-3.77,20.32A36.23,36.23,0,0,1,174,194.73c-3.85,1.5-9.65,3.28-20.32,3.77-11.54.52-15,.64-44.22.64s-32.68-.12-44.22-.64c-10.69-.49-16.46-2.27-20.32-3.77a33.91,33.91,0,0,1-12.58-8.18A33.9,33.9,0,0,1,24.12,174c-1.5-3.85-3.28-9.65-3.77-20.32-.52-11.54-.64-15-.64-44.22s.12-32.68.64-44.22c.49-10.69,2.27-16.46,3.77-20.32a33.93,33.93,0,0,1,8.19-12.58,34.06,34.06,0,0,1,12.58-8.19c3.85-1.5,9.65-3.28,20.32-3.77C76.75,19.83,80.21,19.72,109.43,19.72Z"/><path class="cls-1" d="M109.43,145.91a36.48,36.48,0,1,1,36.48-36.48h0A36.48,36.48,0,0,1,109.43,145.91Zm0-92.67a56.2,56.2,0,1,0,56.19,56.2h0A56.19,56.19,0,0,0,109.43,53.24Z"/><path class="cls-2" d="M181,51a13.14,13.14,0,1,1-13.13-13.13A13.13,13.13,0,0,1,181,51Z"/></g></g></g></g></svg>