<svg xmlns="http://www.w3.org/2000/svg" viewBox="0 0 195.78 195.78"><defs><style>.cls-1{fill-rule:evenodd;}</style></defs><g id="Layer_2" data-name="Layer 2"><g id="Layer_1-2" data-name="Layer 1"><g id="Layer_2-2" data-name="Layer 2"><g id="Layer_1-2-2" data-name="Layer 1-2"><path class="cls-1" d="M171.31,0H24.47A24.48,24.48,0,0,0,0,24.47V171.31a24.48,24.48,0,0,0,24.47,24.47H171.31a24.48,24.48,0,0,0,24.47-24.47V24.47A24.48,24.48,0,0,0,171.31,0ZM56.14,167H23.34V68.3h32.8ZM39.74,54.84h-.21c-11,0-18.12-7.58-18.12-17,0-9.67,7.33-17,18.55-17s18.12,7.37,18.33,17C58.29,47.26,51.17,54.84,39.74,54.84ZM174.36,167H141.58V114.19c0-13.25-4.75-22.3-16.61-22.3-9.06,0-14.46,6.11-16.83,12a22.67,22.67,0,0,0-1.07,8V167H74.28s.44-89.39,0-98.66h32.79v14C111.43,75.55,119.22,66,136.61,66c21.58,0,37.75,14.1,37.75,44.4Z"/></g></g></g></g></svg>