<svg xmlns="http://www.w3.org/2000/svg" viewBox="0 0 211.67 211.67"><g id="Layer_2" data-name="Layer 2"><g id="Layer_1-2" data-name="Layer 1"><g id="Layer_2-2" data-name="Layer 2"><g id="Layer_1-2-2" data-name="Layer 1-2"><path d="M63.5,169.34a21.08,21.08,0,1,0,.19,0ZM0,0V21.17H21.19l38.06,80.27L45,127.38a21.65,21.65,0,0,0-2.59,10.21,21.16,21.16,0,0,0,21.15,21.17h127V137.59H68A2.63,2.63,0,0,1,65.35,135v-.06a2.58,2.58,0,0,1,.32-1.25l9.48-17.27H154a21.23,21.23,0,0,0,18.52-10.9l37.83-68.69a10.27,10.27,0,0,0,1.32-5.08,10.58,10.58,0,0,0-10.58-10.58H44.61L34.57,0ZM169.34,169.34a21.08,21.08,0,1,0,.18,0Z"/></g></g></g></g></svg>