<svg xmlns="http://www.w3.org/2000/svg" viewBox="0 0 170.62 128"><g id="Layer_2" data-name="Layer 2"><g id="Layer_1-2" data-name="Layer 1"><g id="Layer_2-2" data-name="Layer 2"><g id="Layer_1-2-2" data-name="Layer 1-2"><path d="M168.92,27.62s-1.67-12.55-6.78-18.07c-6.49-7.25-13.76-7.3-17.1-7.7C121.17,0,85.35,0,85.35,0h-.08S49.46,0,25.58,1.85c-3.34.4-10.6.45-17.1,7.7-5.1,5.52-6.77,18.07-6.77,18.07A292.78,292.78,0,0,0,0,57.08V70.87a292.52,292.52,0,0,0,1.71,29.46s1.66,12.54,6.77,18.06c6.5,7.24,15,7,18.82,7.78,13.65,1.4,58,1.83,58,1.83s35.86-.06,59.73-1.89c3.34-.43,10.61-.47,17.1-7.72,5.11-5.51,6.78-18.06,6.78-18.06a294.22,294.22,0,0,0,1.7-29.46V57.08A294.48,294.48,0,0,0,168.92,27.62ZM64,96V32l53.34,32Z"/></g></g></g></g></svg>