<?xml version="1.0" standalone="no"?>
<!DOCTYPE svg PUBLIC "-//W3C//DTD SVG 20010904//EN"
 "http://www.w3.org/TR/2001/REC-SVG-20010904/DTD/svg10.dtd">
<svg version="1.0" xmlns="http://www.w3.org/2000/svg"
 width="512.000000pt" height="512.000000pt" viewBox="0 0 512.000000 512.000000"
 preserveAspectRatio="xMidYMid meet">

<g transform="translate(0.000000,512.000000) scale(0.100000,-0.100000)"
fill="#000000" stroke="none">
<path d="M2962 4783 c-49 -24 -69 -61 -97 -174 -107 -449 -935 -4116 -935
-4141 0 -45 43 -112 84 -132 78 -37 170 -4 211 74 20 39 965 4191 965 4241 0
114 -122 185 -228 132z"/>
<path d="M3424 3581 c-103 -62 -109 -179 -15 -263 27 -24 251 -203 499 -398
248 -195 451 -357 451 -360 0 -3 -222 -180 -495 -393 -272 -213 -501 -399
-510 -413 -25 -38 -29 -105 -9 -148 38 -80 134 -117 205 -79 35 19 1120 861
1173 911 40 37 57 74 57 122 0 49 -17 85 -62 126 -30 29 -950 755 -1096 866
-57 43 -68 48 -115 48 -33 0 -63 -7 -83 -19z"/>
<path d="M1588 3418 c-43 -20 -1227 -957 -1246 -986 -25 -39 -23 -132 4 -169
11 -15 293 -241 625 -501 502 -393 613 -475 656 -488 62 -18 94 -11 138 30 63
60 67 161 7 223 -15 15 -253 206 -530 423 l-503 394 23 18 c159 119 1006 800
1022 821 16 21 21 43 21 87 0 63 -16 95 -67 133 -32 24 -113 32 -150 15z"/>
</g>
</svg>
