<?xml version="1.0" standalone="no"?>
<!DOCTYPE svg PUBLIC "-//W3C//DTD SVG 20010904//EN"
 "http://www.w3.org/TR/2001/REC-SVG-20010904/DTD/svg10.dtd">
<svg version="1.0" xmlns="http://www.w3.org/2000/svg"
 width="512.000000pt" height="512.000000pt" viewBox="0 0 512.000000 512.000000"
 preserveAspectRatio="xMidYMid meet">

<g transform="translate(0.000000,512.000000) scale(0.100000,-0.100000)"
fill="#000000" stroke="none">
<path d="M4783 5105 c-277 -78 -722 -395 -1159 -828 l-142 -139 -74 45 c-235
143 -531 247 -828 293 -160 25 -491 25 -650 1 -746 -115 -1368 -567 -1696
-1232 -106 -217 -173 -431 -211 -675 -24 -158 -24 -482 0 -640 68 -447 237
-816 528 -1155 346 -404 824 -666 1370 -752 139 -21 501 -24 624 -5 208 34
366 126 466 274 176 258 155 588 -52 823 -83 95 -104 141 -104 235 0 122 56
213 168 272 34 19 58 23 127 23 100 0 134 -15 227 -95 78 -70 153 -113 248
-146 71 -25 94 -28 205 -28 114 0 133 2 211 30 214 76 365 237 419 447 47 184
51 524 10 766 -52 302 -164 600 -313 831 l-35 55 152 155 c460 473 773 901
832 1140 34 135 -7 244 -111 297 -41 22 -149 26 -212 8z m-34 -382 c-44 -80
-149 -231 -227 -331 l-66 -83 -78 78 c-43 43 -78 81 -78 84 0 27 430 308 473
309 5 0 -6 -26 -24 -57z m-592 -545 c51 -51 93 -97 93 -103 0 -14 -309 -327
-443 -447 -153 -138 -303 -257 -440 -349 -119 -80 -235 -144 -244 -136 -8 9
66 145 132 243 116 170 252 336 450 549 111 118 339 335 352 335 4 0 49 -42
100 -92z m-1575 -7 c146 -26 272 -61 402 -112 91 -36 253 -117 283 -141 9 -7
-2 -26 -40 -71 -139 -165 -285 -378 -352 -516 -34 -70 -43 -81 -60 -76 -11 4
-63 9 -115 12 -170 9 -313 -44 -437 -161 -77 -72 -124 -145 -160 -244 -34 -95
-64 -142 -127 -200 -65 -59 -120 -87 -218 -112 -124 -32 -176 -114 -134 -213
16 -39 140 -158 219 -210 83 -55 209 -112 307 -138 73 -20 108 -23 250 -23
193 1 263 16 417 89 168 79 314 207 381 332 72 136 93 336 47 455 -5 13 9 25
66 54 145 73 327 197 503 342 l78 66 19 -25 c10 -13 48 -82 83 -154 147 -295
216 -617 203 -945 -7 -175 -19 -245 -50 -313 -68 -146 -254 -228 -411 -183
-71 21 -91 33 -181 110 -80 68 -202 129 -289 145 -136 25 -252 9 -382 -54 -74
-36 -103 -57 -161 -118 -225 -237 -230 -575 -12 -822 92 -104 114 -158 114
-275 0 -83 -3 -102 -27 -150 -39 -80 -79 -122 -145 -158 -84 -44 -173 -56
-408 -56 -229 0 -378 21 -572 80 -675 204 -1192 776 -1333 1473 -116 574 33
1178 400 1626 70 85 233 244 315 306 286 219 631 358 986 398 129 15 405 5
541 -18z m223 -1234 c166 -85 215 -294 104 -446 -62 -87 -234 -188 -364 -216
-141 -30 -309 -13 -427 42 l-60 28 67 49 c114 83 214 224 259 363 31 95 98
164 193 199 58 22 167 13 228 -19z"/>
<path d="M1530 3885 c-76 -22 -153 -70 -210 -133 -243 -264 -89 -689 270 -745
328 -50 599 290 481 604 -41 109 -150 218 -258 259 -76 29 -207 36 -283 15z
m186 -301 c111 -53 109 -211 -3 -265 -129 -62 -263 82 -191 205 41 69 122 94
194 60z"/>
<path d="M930 2984 c-75 -20 -153 -69 -210 -132 -241 -262 -91 -685 264 -744
182 -30 380 72 464 238 91 181 62 370 -80 520 -108 114 -279 160 -438 118z
m186 -300 c111 -53 109 -211 -3 -265 -129 -62 -263 82 -191 205 41 69 122 94
194 60z"/>
<path d="M1230 1784 c-115 -31 -233 -129 -284 -238 -128 -271 40 -589 337
-638 183 -30 381 71 465 238 91 181 62 370 -80 520 -108 114 -279 160 -438
118z m184 -298 c75 -31 107 -131 65 -205 -72 -129 -261 -87 -276 60 -10 110
105 189 211 145z"/>
</g>
</svg>
