<?xml version="1.0" standalone="no"?>
<!DOCTYPE svg PUBLIC "-//W3C//DTD SVG 20010904//EN"
 "http://www.w3.org/TR/2001/REC-SVG-20010904/DTD/svg10.dtd">
<svg version="1.0" xmlns="http://www.w3.org/2000/svg"
 width="512.000000pt" height="512.000000pt" viewBox="0 0 512.000000 512.000000"
 preserveAspectRatio="xMidYMid meet">

<g transform="translate(0.000000,512.000000) scale(0.100000,-0.100000)"
fill="#000000" stroke="none">
<path d="M1247 4870 c-58 -15 -78 -27 -442 -270 -401 -268 -435 -297 -504
-437 -62 -125 -72 -229 -46 -475 50 -478 242 -970 570 -1468 501 -759 1255
-1407 2021 -1735 326 -140 582 -206 914 -235 199 -18 301 -2 431 66 111 59
162 120 419 504 202 304 239 365 255 422 39 146 -16 306 -134 392 -43 31 -908
483 -1066 558 -61 28 -81 33 -150 33 -159 0 -235 -49 -378 -245 -56 -76 -109
-139 -122 -144 -20 -8 -39 -1 -112 44 -403 244 -802 644 -1033 1037 -29 51
-40 80 -36 95 3 15 56 60 142 123 147 108 191 155 225 243 25 67 30 176 10
237 -7 22 -135 278 -285 569 -301 587 -310 601 -430 657 -72 34 -180 46 -249
29z m126 -324 c8 -8 132 -243 276 -521 188 -363 260 -512 256 -526 -4 -11 -66
-64 -139 -118 -150 -111 -197 -161 -227 -240 -29 -72 -31 -185 -6 -258 42
-119 268 -441 460 -654 110 -121 270 -272 409 -384 117 -94 339 -241 428 -284
70 -34 82 -36 170 -36 88 0 101 3 162 33 75 37 117 80 236 242 58 79 84 106
102 108 17 2 189 -82 530 -258 278 -144 509 -266 514 -270 29 -29 7 -72 -198
-382 -115 -172 -224 -330 -244 -351 -81 -85 -154 -99 -382 -73 -200 23 -320
49 -490 106 -415 140 -836 381 -1227 705 -216 179 -512 484 -694 715 -354 449
-616 971 -703 1401 -24 121 -49 359 -43 424 5 72 31 127 84 176 53 51 669 459
693 459 10 0 25 -6 33 -14z"/>
</g>
</svg>
